<svg width="1055" height="1263" viewBox="0 0 1055 1263" fill="none" xmlns="http://www.w3.org/2000/svg">
<g clip-path="url(#clip0_1_168)">
<path d="M714.51 32.2117L82.7055 464.979C-0.891345 522.241 -22.2405 636.429 35.0209 720.026L35.0266 720.034C92.288 803.631 206.476 824.98 290.073 767.719L921.878 334.951C1005.47 277.69 1026.82 163.501 969.562 79.9046L969.557 79.8963C912.295 -3.70055 798.107 -25.0497 714.51 32.2117Z" fill="url(#paint0_linear_1_168)"/>
<path d="M859.64 438.57H183.47C82.1423 438.57 0 520.712 0 622.04V622.05C0 723.378 82.1423 805.52 183.47 805.52H859.64C960.968 805.52 1043.11 723.378 1043.11 622.05V622.04C1043.11 520.712 960.968 438.57 859.64 438.57Z" fill="url(#paint1_linear_1_168)"/>
<path d="M766.854 471.998L101.941 927.443C18.3442 984.704 -3.0049 1098.89 54.2565 1182.49L54.2621 1182.5C111.524 1266.09 225.712 1287.44 309.309 1230.18L974.221 774.737C1057.82 717.475 1079.17 603.287 1021.91 519.69L1021.9 519.682C964.639 436.085 850.45 414.736 766.854 471.998Z" fill="url(#paint2_linear_1_168)"/>
<path d="M821.93 318.45C897.886 318.45 959.46 256.876 959.46 180.92C959.46 104.964 897.886 43.39 821.93 43.39C745.974 43.39 684.4 104.964 684.4 180.92C684.4 256.876 745.974 318.45 821.93 318.45Z" fill="#83CAFF"/>
<path d="M199.14 1220.76C275.096 1220.76 336.67 1159.19 336.67 1083.23C336.67 1007.27 275.096 945.7 199.14 945.7C123.184 945.7 61.61 1007.27 61.61 1083.23C61.61 1159.19 123.184 1220.76 199.14 1220.76Z" fill="#258DFA"/>
</g>
<defs>
<linearGradient id="paint0_linear_1_168" x1="106.434" y1="795.817" x2="898.234" y2="4.01662" gradientUnits="userSpaceOnUse">
<stop offset="0.29" stop-color="#258DFA"/>
<stop offset="1" stop-color="#2565FA"/>
</linearGradient>
<linearGradient id="paint1_linear_1_168" x1="0" y1="622.05" x2="1043.11" y2="622.05" gradientUnits="userSpaceOnUse">
<stop stop-color="#258DFA"/>
<stop offset="1" stop-color="#258DFA"/>
</linearGradient>
<linearGradient id="paint2_linear_1_168" x1="128.302" y1="1260.88" x2="948.002" y2="441.185" gradientUnits="userSpaceOnUse">
<stop stop-color="#1CD7F8"/>
<stop offset="1" stop-color="#258DFA"/>
</linearGradient>
<clipPath id="clip0_1_168">
<rect width="1054.04" height="1262.24" fill="white"/>
</clipPath>
</defs>
</svg>
