<svg width="1055" height="1263" viewBox="0 0 1055 1263" fill="none" xmlns="http://www.w3.org/2000/svg">
<g clip-path="url(#clip0_1_186)">
<path d="M714.51 32.6916L82.7055 465.459C-0.891345 522.721 -22.2405 636.909 35.0209 720.506L35.0266 720.514C92.288 804.111 206.476 825.46 290.073 768.198L921.878 335.431C1005.47 278.169 1026.82 163.981 969.562 80.3844L969.557 80.3762C912.295 -3.22069 798.107 -24.5698 714.51 32.6916Z" fill="url(#paint0_linear_1_186)"/>
<path d="M859.64 439.05H183.47C82.1423 439.05 0 521.192 0 622.52V622.53C0 723.857 82.1423 806 183.47 806H859.64C960.968 806 1043.11 723.857 1043.11 622.53V622.52C1043.11 521.192 960.968 439.05 859.64 439.05Z" fill="url(#paint1_linear_1_186)"/>
<path d="M766.854 472.478L101.941 927.923C18.3442 985.184 -3.0049 1099.37 54.2565 1182.97L54.2621 1182.98C111.524 1266.57 225.712 1287.92 309.309 1230.66L974.221 775.217C1057.82 717.955 1079.17 603.767 1021.91 520.17L1021.9 520.162C964.639 436.565 850.45 415.216 766.854 472.478Z" fill="url(#paint2_linear_1_186)"/>
<path d="M821.93 318.93C897.886 318.93 959.46 257.356 959.46 181.4C959.46 105.444 897.886 43.8701 821.93 43.8701C745.974 43.8701 684.4 105.444 684.4 181.4C684.4 257.356 745.974 318.93 821.93 318.93Z" fill="#F29166"/>
<path d="M199.14 1221.24C275.096 1221.24 336.67 1159.67 336.67 1083.71C336.67 1007.75 275.096 946.18 199.14 946.18C123.184 946.18 61.61 1007.75 61.61 1083.71C61.61 1159.67 123.184 1221.24 199.14 1221.24Z" fill="#ED5600"/>
</g>
<defs>
<linearGradient id="paint0_linear_1_186" x1="106.434" y1="796.296" x2="898.234" y2="4.49648" gradientUnits="userSpaceOnUse">
<stop offset="0.29" stop-color="#ED5600"/>
<stop offset="1" stop-color="#ED2E00"/>
</linearGradient>
<linearGradient id="paint1_linear_1_186" x1="0" y1="622.53" x2="1043.11" y2="622.53" gradientUnits="userSpaceOnUse">
<stop stop-color="#ED5600"/>
<stop offset="1" stop-color="#ED5600"/>
</linearGradient>
<linearGradient id="paint2_linear_1_186" x1="128.302" y1="1261.36" x2="948.002" y2="441.665" gradientUnits="userSpaceOnUse">
<stop stop-color="#EB8002"/>
<stop offset="1" stop-color="#ED5600"/>
</linearGradient>
<clipPath id="clip0_1_186">
<rect width="1054.04" height="1262.24" fill="white" transform="translate(0 0.47998)"/>
</clipPath>
</defs>
</svg>
