<svg xmlns="http://www.w3.org/2000/svg" viewBox="0 0 480.62 341.56"><g id="Layer_2" data-name="Layer 2"><g id="object"><path d="M374.84,211.09H79.6a15,15,0,0,1-15-15V30.86a15,15,0,0,1,15-15H374.84a15,15,0,0,1,15,15V196.13A15,15,0,0,1,374.84,211.09ZM79.6,20.9a10,10,0,0,0-10,10V196.13a10,10,0,0,0,10,10H374.84a10,10,0,0,0,10-10V30.86a10,10,0,0,0-10-10Z"/><path d="M227.22,201.86A82.82,82.82,0,1,1,310,119,82.92,82.92,0,0,1,227.22,201.86Zm0-160.64A77.82,77.82,0,1,0,305,119,77.91,77.91,0,0,0,227.22,41.22Z"/><path d="M387.3,180.61H281.61a2.5,2.5,0,0,1-1.69-4.33,77.8,77.8,0,0,0,0-114.48,2.5,2.5,0,0,1,1.69-4.34H387.3a2.5,2.5,0,0,1,2.5,2.5V178.11A2.49,2.49,0,0,1,387.3,180.61Zm-99.62-5H384.8V62.46H287.68a82.78,82.78,0,0,1,0,113.15Z"/><path d="M227.22,176.19A57.15,57.15,0,1,1,284.37,119,57.22,57.22,0,0,1,227.22,176.19Zm0-109.3A52.15,52.15,0,1,0,279.37,119,52.21,52.21,0,0,0,227.22,66.89Z"/><path d="M134.75,74.62A14.66,14.66,0,1,1,149.4,60,14.67,14.67,0,0,1,134.75,74.62Zm0-24.31A9.66,9.66,0,1,0,144.4,60,9.66,9.66,0,0,0,134.75,50.31Z"/><path d="M172.82,180.61H67.14a2.49,2.49,0,0,1-2.5-2.5V60a2.49,2.49,0,0,1,2.5-2.5H122.6a2.5,2.5,0,0,1,2.5,2.5,9.65,9.65,0,1,0,19.3,0,2.5,2.5,0,0,1,2.5-2.5h25.92a2.5,2.5,0,0,1,2.33,1.59,2.52,2.52,0,0,1-.63,2.75,77.78,77.78,0,0,0,0,114.48,2.5,2.5,0,0,1-1.7,4.33Zm-103.18-5h97.12a82.75,82.75,0,0,1,0-113.15H149.19a14.65,14.65,0,0,1-28.88,0H69.64Z"/><path d="M168.37,20.9H101.14A2.5,2.5,0,0,1,99.06,17l10.48-15.9A2.5,2.5,0,0,1,111.63,0h46.24A2.52,2.52,0,0,1,160,1.12l10.33,15.67a2.51,2.51,0,0,1-1.92,4.11Zm-62.58-5h57.92L156.52,5H113Z"/><path d="M361.3,50.31H307.53a2.5,2.5,0,0,1-2.5-2.5V30.49a2.5,2.5,0,0,1,2.5-2.5H361.3a2.5,2.5,0,0,1,2.5,2.5V47.81A2.5,2.5,0,0,1,361.3,50.31Zm-51.27-5H358.8V33H310Z"/><path d="M470.37,294.83H10.25A10.26,10.26,0,0,1,0,284.58V253.33a10.26,10.26,0,0,1,10.25-10.24H470.37a10.26,10.26,0,0,1,10.25,10.24v31.25A10.26,10.26,0,0,1,470.37,294.83ZM10.25,248.09A5.25,5.25,0,0,0,5,253.33v31.25a5.26,5.26,0,0,0,5.25,5.25H470.37a5.26,5.26,0,0,0,5.25-5.25V253.33a5.25,5.25,0,0,0-5.25-5.24Z"/><path d="M460.37,341.56H30.25A10.26,10.26,0,0,1,20,331.32V300.07a10.26,10.26,0,0,1,10.25-10.24H460.37a10.25,10.25,0,0,1,10.24,10.24v31.25A10.25,10.25,0,0,1,460.37,341.56ZM30.25,294.83A5.25,5.25,0,0,0,25,300.07v31.25a5.25,5.25,0,0,0,5.25,5.24H460.37a5.25,5.25,0,0,0,5.24-5.24V300.07a5.25,5.25,0,0,0-5.24-5.24Z"/><path d="M406.5,247.83H31.62a10.26,10.26,0,0,1-10.25-10.25V216.34a10.26,10.26,0,0,1,10.25-10.25H406.5a10.26,10.26,0,0,1,10.25,10.25v21.24A10.26,10.26,0,0,1,406.5,247.83ZM31.62,211.09a5.26,5.26,0,0,0-5.25,5.25v21.24a5.26,5.26,0,0,0,5.25,5.25H406.5a5.26,5.26,0,0,0,5.25-5.25V216.34a5.26,5.26,0,0,0-5.25-5.25Z"/><path d="M478.12,262.09H2.5a2.5,2.5,0,0,1,0-5H478.12a2.5,2.5,0,0,1,0,5Z"/><path d="M478.12,280.83H2.5a2.5,2.5,0,0,1,0-5H478.12a2.5,2.5,0,0,1,0,5Z"/></g></g></svg>