<svg xmlns="http://www.w3.org/2000/svg" xmlns:xlink="http://www.w3.org/1999/xlink" viewBox="0 0 4221.77 1984.24"><defs><style>.cls-1,.cls-3{fill:none;opacity:0.25;}.cls-2{clip-path:url(#clip-path);}.cls-3{stroke:#000;stroke-miterlimit:10;stroke-width:2px;}</style><clipPath id="clip-path" transform="translate(773.12 -0.01)"><rect class="cls-1" y="0.01" width="2834.65" height="1984.24"/></clipPath></defs><g id="Background"><rect class="cls-1" x="773.12" width="2834.65" height="1984.24"/></g><g id="Design"><g class="cls-2"><path class="cls-3" d="M-695.18,614.15c27.79,148.44,189.94,266.19,334.41,222.2,117.69-35.84,186.78-153.07,258.6-253s182-199.26,302-172.23c89.05,20.06,147.13,102.3,209.75,168.72S570,704.07,650.45,661c77.27-41.31,87-146.38,132.92-221,77.7-126.26,284-143,381.08-30.95,45.86,52.95,66.13,123.37,106.34,180.72,98.11,139.93,321.62,168.61,451.87,58,77.65-66,117.82-165.54,184.62-242.45,137.33-158.12,393.37-196.26,570.82-85,87,54.51,151.94,136.9,222.49,211.46S2854.11,677,2955,695.81s221-32.87,246-132.44" transform="translate(773.12 -0.01)"/><path class="cls-3" d="M-696.22,635.16c27.73,147.31,189.15,263.13,332.59,219.64,116.79-35.42,186-150.89,257.39-249.92a664.94,664.94,0,0,1,60.31-72.67c65.91-68.27,148.38-118,237.22-101.13,37.68,7.17,71,24.47,101.2,49,39.52,32,72.52,75,106.26,113.56q3.06,3.5,6.14,6.94c31.45,35.34,72.28,68.78,116.62,85.92,37,14.34,75.48,17.21,110.8,3.25a133,133,0,0,0,16.76-8c28.58-16.26,48.07-41.06,64.07-69.41,27.5-48.68,45.58-107,76.24-153,75.12-112.7,254.86-134,356.84-46.08a200.75,200.75,0,0,1,21,21c38.1,44.21,58.6,100.46,88.06,150.85,5.62,9.6,11.56,19,18,28,89.29,125.33,280.74,158.86,410.88,80.57a266.42,266.42,0,0,0,37-26.84c76.29-66,115.53-165,181.17-241.6a406.16,406.16,0,0,1,117.14-93.53c137.57-73.7,315.83-73.36,447.48,12,53.92,35,98.61,81.42,143.32,128.16,28.53,29.82,56.88,59.59,85.92,87.34,27,25.81,55.5,50.36,85.14,71.54,28.81,20.62,58.77,38.21,91.5,51.94a397.41,397.41,0,0,0,84.58,25.15,285.52,285.52,0,0,0,110.69-2.84c66.47-15,123.2-54.45,140.83-113.59" transform="translate(773.12 -0.01)"/><path class="cls-3" d="M-697.26,656.18C-669.6,802.35-508.9,916.24-366.48,873.24c115.88-35,185.21-148.69,256.17-246.86a687.49,687.49,0,0,1,59.7-72.18C14.37,486.31,95.05,437.33,182.78,451q57.08,8.89,104.08,45.67c41.08,32,74,77,107.3,117.32q3,3.64,6.07,7.25c31.16,37,72,72.44,117.75,89.5,38,14.25,77.33,15.54,112.86.27a139.17,139.17,0,0,0,16.84-8.67c28.68-17.28,48.35-43,65-71.82C741.46,580.83,763,523.38,795.4,478.42c77.62-107.71,253.13-127.86,353.82-40.14A202.37,202.37,0,0,1,1170,459.16c37.68,43.95,58.2,99.65,87.74,149.39,5.63,9.48,11.58,18.73,18,27.63,89.4,123.47,279.48,155.26,407.57,76.42a265.43,265.43,0,0,0,36.43-26.92c74.94-66,113.24-164.52,177.72-240.75a396.81,396.81,0,0,1,115.63-93.31c136.38-73.33,313.68-71.22,442.8,15.25,54.74,36.66,99.21,85.88,145.64,133.4,29.66,30.35,59.73,59.67,90.35,86.15,28.49,24.62,58.29,47.25,88.51,65.9a469.31,469.31,0,0,0,92.6,44.73,518.49,518.49,0,0,0,86.89,22.56,342.11,342.11,0,0,0,113.48-.57c67.63-12.08,124.55-46.37,143.58-99.85" transform="translate(773.12 -0.01)"/><path class="cls-3" d="M-698.3,677.19c27.6,145,187.57,257,329,214.5,115-34.57,184.43-146.5,255-243.81a711.26,711.26,0,0,1,59.09-71.69c64.05-67.5,143-115.78,229.55-105.28,38.47,4.67,74.53,17.9,107,42.35,42.64,32,75.4,79.09,108.33,121.09q3,3.79,6,7.55c30.87,38.69,71.8,76.11,118.9,93.09,39,14.15,79.17,13.87,114.9-2.71a145.78,145.78,0,0,0,16.93-9.3c28.78-18.29,48.62-44.87,66-74.23,30-50.68,55-107.18,89.17-151.13,79.93-102.72,251.4-121.68,350.81-34.2a203,203,0,0,1,20.46,20.79c37.26,43.68,57.81,98.83,87.42,147.92,5.64,9.36,11.61,18.47,18.07,27.25C1367.69,781,1556.4,811,1682.44,731.65a264.63,264.63,0,0,0,35.81-27c73.58-66,111-164,174.27-239.9a387.36,387.36,0,0,1,114.13-93.07c135.18-73,311.47-69,438.11,18.51,55.55,38.37,99.81,90.33,148,138.64,30.78,30.87,62.57,59.74,94.76,85,30,23.43,61.08,44.14,91.89,60.26a481.44,481.44,0,0,0,93.7,37.52,738.39,738.39,0,0,0,89.21,20,419.69,419.69,0,0,0,116.26,1.71c68.79-9.12,125.91-38.29,146.33-86.12" transform="translate(773.12 -0.01)"/><path class="cls-3" d="M-699.33,698.2C-671.8,842.11-512.55,952.15-372.2,910.14-258.12,876-188.55,765.82-118.45,669.37A741.44,741.44,0,0,1-60,598.18C3.15,531.07,80.46,483.4,165.74,490.83c38.93,3.39,76.29,14.61,109.85,39C319.81,561.9,352.43,611,385,654.72q2.94,3.93,5.93,7.85c30.58,40.37,71.56,79.78,120,96.68,40,14.06,81,12.2,117-5.68a155.82,155.82,0,0,0,17-9.93c28.87-19.32,48.9-46.79,66.91-76.65,31.3-51.69,59.57-107.2,95.63-150.17,82-97.75,249.68-115.49,347.79-28.26a207,207,0,0,1,20.21,20.69c36.84,43.42,57.41,98,87.09,146.46,5.66,9.24,11.65,18.22,18.11,26.86,89.62,119.73,276.95,148.06,401,68.12a262.68,262.68,0,0,0,35.18-27.11c72.22-66,108.66-163.49,170.82-239.05a378.26,378.26,0,0,1,112.63-92.84c134-72.6,309.22-66.63,433.41,21.77,56.36,40.12,100.42,94.78,150.3,143.89,31.91,31.38,65.42,59.81,99.19,83.74,31.44,22.25,63.9,41,95.26,54.64,30.47,13.28,60.11,22.43,94.8,30.3,28.23,6.32,59.13,12.63,91.52,17.37,39.49,5.8,81.35,7.19,119,4,70-6.15,127.28-30.2,149.09-72.38" transform="translate(773.12 -0.01)"/><path class="cls-3" d="M-700.37,719.21C-672.91,862-514.38,970.1-375,928.58c113.17-33.73,182.86-142.12,252.53-237.71a770.07,770.07,0,0,1,57.88-70.69c62.18-66.73,138-103.59,221.87-109.44C196.6,508,235.28,522.07,270,546.47c45.78,32,78.28,83.22,110.41,128.62q2.91,4.08,5.86,8.15c30.38,42,71.33,83.45,121.17,100.27,41,14,82.86,10.53,119-8.66a164,164,0,0,0,17.1-10.56c29-20.34,49.18-48.7,67.86-79.06C743.94,632.54,775.46,578,813.46,536c83.94-92.83,248-109.32,344.77-22.33a209,209,0,0,1,20,20.59c36.42,43.17,57,97.2,86.77,145,5.67,9.11,11.67,18,18.15,26.48,89.73,117.85,275.68,144.45,397.64,64a261.18,261.18,0,0,0,34.56-27.19c70.87-66.06,106.37-163,167.37-238.2a369.35,369.35,0,0,1,111.13-92.62c132.79-72.22,306.93-64.2,428.72,25,57.17,41.89,101,99.24,152.63,149.13a676.12,676.12,0,0,0,103.6,82.55c32.92,21.06,66.7,37.83,98.64,49,31,10.84,60.56,17.18,95.9,23.09,28.78,4.71,60.56,10.2,93.84,14.78,40.55,5.6,83.47,7.85,121.82,6.27,71.12-3.19,128.64-22.12,151.84-58.65" transform="translate(773.12 -0.01)"/><path class="cls-3" d="M-701.41,740.23C-674,881.86-516.21,988.05-377.91,947c112.27-33.31,182.08-139.93,251.32-234.67a803.56,803.56,0,0,1,57.28-70.19c61.24-66.34,136.05-101.36,218-111.51,39.65-4.91,79.81,8,115.62,32.42,47.34,32,79.72,85.28,111.45,132.38,1.91,2.82,3.85,5.64,5.79,8.46,30.1,43.65,71.09,87.11,122.3,103.85,41.94,13.87,84.71,8.86,121.06-11.64A173.21,173.21,0,0,0,642.12,785c29.07-21.36,49.45-50.62,68.8-81.48,33.84-53.69,68.55-107.17,108.55-148.24,85.66-88,246.24-103.14,341.76-16.39a211.34,211.34,0,0,1,19.71,20.5c36,42.9,56.62,96.37,86.44,143.54,5.69,9,11.7,17.71,18.19,26.08,89.84,116,274.42,140.85,394.33,59.82a260.34,260.34,0,0,0,33.94-27.29c69.51-66.08,104.08-162.47,163.92-237.35a360.5,360.5,0,0,1,109.62-92.38C2119,359.9,2292,370.05,2411.42,460c58,43.69,101.62,103.7,154.95,154.38a583.49,583.49,0,0,0,108,81.34c34.38,19.88,69.48,34.71,102,43.37,31.56,8.4,61,11.92,97,15.87,29.34,3.12,62,7.78,96.16,12.2,41.62,5.4,85.6,8.51,124.61,8.54,72.27-.22,130-14,154.59-44.91" transform="translate(773.12 -0.01)"/><path class="cls-3" d="M-702.45,761.24C-675.12,901.74-518,1006-380.76,965.48c111.36-32.89,181.29-137.75,250.1-231.62A847.76,847.76,0,0,1-74,664.16c60.31-66,134.25-99.48,214.18-113.58,39.89-7,81.58,4.75,118.51,29.1,48.91,32,81.15,87.35,112.48,136.15q2.83,4.38,5.72,8.76c29.83,45.33,70.86,90.79,123.44,107.44,42.93,13.77,86.56,7.19,123.12-14.62a182.19,182.19,0,0,0,17.27-11.81c29.16-22.38,49.73-52.52,69.75-83.89,35.11-54.69,72.93-107.14,115-147.28C912.66,491.28,1070,477.48,1164.23,564a215,215,0,0,1,19.46,20.4c35.57,42.64,56.22,95.56,86.11,142.08,5.71,8.86,11.74,17.46,18.23,25.7,90,114.12,273.16,137.24,391,55.66a259.42,259.42,0,0,0,33.32-27.37c68.14-66.1,101.78-162,160.45-236.5A352,352,0,0,1,1981,451.79c130.4-71.49,302.24-59.13,419.34,31.55,58.76,45.49,102.23,108.14,157.29,159.62A518.31,518.31,0,0,0,2670,723.1c35.86,18.69,72.27,31.58,105.39,37.73,32.1,6,61.45,6.74,98.09,8.66,29.88,1.57,63.42,5.34,98.47,9.6,42.68,5.21,87.72,9.26,127.4,10.82,73.43,2.9,131.35-5.94,157.34-31.16" transform="translate(773.12 -0.01)"/><path class="cls-3" d="M-703.48,782.25c27.26,139.37,183.62,241.7,319.86,201.68,110.46-32.47,180.51-135.56,248.9-228.58a889.6,889.6,0,0,1,56.06-69.2c59.37-65.57,132.54-97.94,210.33-115.66,40.1-9.13,83.34,1.47,121.4,25.8,50.47,32,82.59,89.41,113.52,139.91q2.79,4.53,5.65,9.06c29.54,47,70.62,94.46,124.57,111C540.73,870,585.22,861.81,622,838.69a190.33,190.33,0,0,0,17.36-12.44c29.26-23.39,50-54.43,70.7-86.3,36.37-55.69,77.24-107.12,121.47-146.32,88.49-78.43,242.78-90.77,335.72-4.51a213.75,213.75,0,0,1,19.2,20.31c35.16,42.37,55.84,94.73,85.8,140.61,5.71,8.74,11.76,17.21,18.27,25.31,90,112.25,271.89,133.64,387.71,51.52a258.87,258.87,0,0,0,32.7-27.47c66.78-66.12,99.49-161.45,157-235.65a343.37,343.37,0,0,1,106.63-91.92c129.21-71.13,299.82-56.49,414.65,34.8C2448.73,554,2492,619.23,2548.8,671.5a470.63,470.63,0,0,0,116.86,78.94c37.34,17.5,75.06,28.46,108.77,32.1,32.63,3.52,61.9,1.64,99.19,1.44,30.43-.16,64.85,2.91,100.79,7,43.74,5,89.84,9.92,130.17,13.1,74.59,5.87,132.72,2.14,160.1-17.43" transform="translate(773.12 -0.01)"/><path class="cls-3" d="M-704.52,803.27c27.2,138.23,182.83,238.63,318,199.1,109.56-32,179.73-133.36,247.69-225.52,17.14-23.24,35.73-46.66,55.45-68.71C-24.9,643,47.56,611.39,123.16,590.41c40.29-11.18,85.1-1.82,124.28,22.48,52,32.05,84,91.48,114.55,143.69,1.84,3.11,3.71,6.23,5.58,9.36,29.27,48.67,70.39,98.12,125.72,114.62,44.89,13.57,90.24,3.84,127.21-20.59A200.53,200.53,0,0,0,638,846.91c29.35-24.42,50.28-56.35,71.64-88.72,37.64-56.7,81.49-107.12,127.94-145.36,89.65-73.81,241.06-84.59,332.7,1.43a217.62,217.62,0,0,1,19,20.21c34.74,42.11,55.44,93.92,85.47,139.15,5.73,8.62,11.79,17,18.31,24.93,90.17,110.38,270.63,130,384.4,47.36a258.2,258.2,0,0,0,32.08-27.55c65.43-66.15,97.2-160.94,153.55-234.81,28.49-37.55,63.57-68.7,105.13-91.69,128-70.75,297.37-53.78,410,38.06C2438.39,579.12,2481.5,647,2540,700a434,434,0,0,0,121.28,77.74c38.81,16.32,77.83,25.35,112.14,26.47,33.17,1.09,62.35-3.77,100.29-5.77,31-1.63,66.28.48,103.1,4.42,44.8,4.81,92,10.58,133,15.37,75.74,8.84,134.07,10.23,162.85-3.69" transform="translate(773.12 -0.01)"/><path class="cls-3" d="M-705.56,824.28c27.13,137.1,182,235.57,316.23,196.54,108.65-31.63,178.94-131.17,246.47-222.47,17-23,35.42-46.28,54.84-68.22,57.51-64.79,126-111,202.66-119.8,42.3-4.85,86.86-5.11,127.17,19.17,53.6,32,85.46,93.54,115.59,147.45q2.72,4.81,5.51,9.66c29,50.35,70.15,101.79,126.85,118.21C535.64,918.3,581.85,907,619,881.25a210.57,210.57,0,0,0,17.53-13.69c29.45-25.44,50.56-58.26,72.59-91.13,38.91-57.7,85.66-107.14,134.4-144.4,90.64-69.3,239.33-78.4,329.68,7.36a220.73,220.73,0,0,1,18.7,20.13c34.31,41.84,55,93.09,85.14,137.68,5.75,8.5,11.83,16.71,18.35,24.54,90.28,108.52,269.36,126.44,381.1,43.22A257.56,257.56,0,0,0,1708,837.31c64.07-66.16,94.91-160.43,150.1-233.95,27.93-37.45,62.41-68.57,103.62-91.46,126.82-70.39,294.89-51,405.27,41.32,61.07,51.08,104,121.5,164.27,175.35a406,406,0,0,0,125.7,76.54c40.29,15.13,80.62,22.23,115.52,20.83,33.7-1.34,62.8-9,101.39-13,31.53-3.23,67.7-2,105.42,1.83,45.86,4.61,94.08,11.24,135.74,17.64,76.89,11.82,135.43,18.32,165.6,10.05" transform="translate(773.12 -0.01)"/><path class="cls-3" d="M-706.6,845.29c27.07,136,181.25,232.51,314.41,194,107.75-31.21,178.16-129,245.26-219.43C-130,797-111.82,774-92.69,752.13-36.12,687.72,31,641.36,106.12,630.24c42.93-6.34,88.63-8.38,130.06,15.86,55.16,32,86.9,95.61,116.62,151.22q2.68,5,5.44,10c28.7,52,69.92,105.46,128,121.8,46.86,13.38,93.94.51,131.32-26.55a219.22,219.22,0,0,0,17.62-14.31c29.55-26.46,50.83-60.17,73.54-93.55A576.43,576.43,0,0,1,849.56,651.23c91.51-64.9,237.62-72.22,326.67,13.3a225.32,225.32,0,0,1,18.45,20c33.89,41.58,54.65,92.28,84.82,136.22a300,300,0,0,0,18.38,24.16C1388.27,951.58,1566,967.77,1675.67,884a256.25,256.25,0,0,0,30.83-27.73c62.71-66.19,92.62-159.92,146.65-233.11,27.38-37.34,61.26-68.43,102.12-91.23,125.62-70,292.37-48.2,400.58,44.58,61.8,53,104.63,126,166.6,180.6a383.58,383.58,0,0,0,130.12,75.33c41.76,13.95,83.39,19.12,118.9,15.21,34.22-3.78,63.24-14.29,102.48-20.2,32.08-4.84,69.13-4.38,107.73-.77,46.92,4.43,96.21,11.91,138.53,19.93,78,14.78,136.79,26.4,168.35,23.78" transform="translate(773.12 -0.01)"/><path class="cls-3" d="M-707.63,866.3c27,134.83,180.46,229.45,312.59,191.41,106.84-30.78,177.37-126.79,244-216.37,16.84-22.62,34.81-45.5,53.63-67.22,55.64-64,121.34-110.61,195-124,43.55-7.89,90.38-11.67,132.94,12.54,56.72,32.06,88.34,97.68,117.66,155,1.76,3.41,3.56,6.83,5.37,10.26C382,881.66,423.26,937.08,482.7,953.34c47.85,13.29,95.79-1.16,133.38-29.53q9.1-6.91,17.7-14.94c29.64-27.48,51.11-62.08,74.49-96,41.44-59.7,93.82-107.32,147.31-142.48,92.23-60.62,235.89-66,323.65,19.24a228.73,228.73,0,0,1,18.2,19.93c33.47,41.32,54.25,91.47,84.49,134.76a293.1,293.1,0,0,0,18.43,23.77c90.49,104.78,266.83,119.23,374.47,34.92A255.83,255.83,0,0,0,1705,875.22c61.36-66.21,90.33-159.41,143.2-232.25,26.83-37.24,60.1-68.3,100.62-91,124.43-69.65,289.8-45.33,395.89,47.84,62.52,54.92,105.23,130.42,168.92,185.84a365.84,365.84,0,0,0,134.54,74.14c43.24,12.76,86.18,16,122.28,9.57,34.76-6.2,63.69-19.54,103.58-27.41,32.63-6.44,70.56-6.82,110.05-3.36a1116.64,1116.64,0,0,1,141.3,22.2c79.21,17.75,138.15,34.48,171.11,37.52" transform="translate(773.12 -0.01)"/><path class="cls-3" d="M-708.67,887.32C-681.74,1021-529,1113.7-397.9,1076.16-292,1045.8-221.31,951.56-155.07,862.83c16.74-22.41,34.5-45.11,53-66.72,54.69-63.64,119-110.54,191.13-126,44.19-9.49,92.15-15,135.83,9.23,58.29,32.06,89.77,99.74,118.69,158.75q2.61,5.27,5.31,10.57C377,904,418.36,961.42,479.17,977.6c48.83,13.2,97.64-2.83,135.43-32.51q9.17-7.23,17.79-15.57c29.74-28.49,51.39-64,75.43-98.37,42.71-60.71,97.83-107.49,153.78-141.52,92.85-56.47,234.16-59.85,320.63,25.18a231.05,231.05,0,0,1,18,19.84c33,41.05,53.85,90.64,84.16,133.29a285.85,285.85,0,0,0,18.47,23.39c90.6,102.9,265.57,115.62,371.17,30.76a254.44,254.44,0,0,0,29.58-27.91c60-66.24,88-158.9,139.75-231.41,26.27-37.13,59-68.16,99.12-90.77,123.23-69.28,287.21-42.43,391.19,51.1C2396.86,680,2439.46,758,2504.88,814.18a351.5,351.5,0,0,0,139,72.94c44.71,11.57,88.95,12.9,125.65,3.93,35.29-8.62,64.14-24.8,104.68-34.62,33.18-8,72-9.25,112.36-5.95A888.67,888.67,0,0,1,3130.62,875c80.36,20.71,139.51,42.56,173.86,51.25" transform="translate(773.12 -0.01)"/><path class="cls-3" d="M-709.71,908.33c26.87,132.56,178.88,223.32,309,186.28,105-29.95,175.81-122.42,241.62-210.28,16.65-22.21,34.19-44.72,52.42-66.23C-53,754.85,10,707.53,80.57,690c44.82-11.13,93.91-18.24,138.72,5.92C279.14,728,310.5,797.72,339,858.43c1.71,3.61,3.47,7.23,5.24,10.87,27.83,57.06,69.21,116.46,131.4,132.56,49.81,13.1,99.47-4.5,137.48-35.48q9.23-7.57,17.87-16.2c29.84-29.52,51.66-65.91,76.38-100.79,44-61.71,101.77-107.72,160.24-140.56C961,656.4,1100.06,655.16,1185.23,740a233,233,0,0,1,17.69,19.74c32.63,40.79,53.46,89.83,83.85,131.83a278.66,278.66,0,0,0,18.5,23c90.72,101,264.31,112,367.86,26.61a255,255,0,0,0,29-28c58.64-66.25,85.75-158.39,136.3-230.55,25.72-37,57.8-68,97.61-90.55,122-68.91,284.58-39.48,386.51,54.36,63.92,58.85,106.44,139.32,173.58,196.33a339.85,339.85,0,0,0,143.38,71.73c46.19,10.39,91.74,9.8,129-1.69,35.83-11,64.59-30.06,105.78-41.84,33.73-9.65,73.41-11.68,114.67-8.54a749.41,749.41,0,0,1,146.88,26.75c81.51,23.68,140.87,50.65,176.61,65" transform="translate(773.12 -0.01)"/><path class="cls-3" d="M-710.75,929.34c26.8,131.43,178.1,220.27,307.14,183.71,104.13-29.52,175-120.22,240.4-207.22,16.55-22,33.89-44.34,51.81-65.74C-58.57,777.23,3,729.42,72.05,709.91c45.44-12.82,95.68-21.53,141.6,2.61,61.42,32.06,92.66,103.87,120.77,166.28q2.52,5.57,5.17,11.17c27.54,58.74,69,120.13,132.53,136.15,50.79,13,101.32-6.17,139.53-38.46q9.29-7.89,18-16.83c29.93-30.54,51.94-67.82,77.33-103.2,45.24-62.71,105.67-108,166.69-139.6,93.85-48.52,230.72-47.49,314.61,37.06a240.81,240.81,0,0,1,17.43,19.65c32.21,40.52,53.07,89,83.52,130.36a273.73,273.73,0,0,0,18.55,22.62c90.82,99.17,263,108.42,364.54,22.46a253.87,253.87,0,0,0,28.34-28.09c57.29-66.28,83.46-157.88,132.84-229.71,25.18-36.92,56.65-67.9,96.12-90.31,120.84-68.55,281.92-36.5,381.82,57.61,64.58,60.85,107,143.78,175.91,201.58a330.52,330.52,0,0,0,147.79,70.53c47.67,9.2,94.53,6.69,132.41-7.33,36.37-13.46,65-35.32,106.88-49.05,34.28-11.26,74.84-14.11,117-11.14a657.25,657.25,0,0,1,149.66,29C3223.71,929.94,3283.26,962,3320.4,982" transform="translate(773.12 -0.01)"/><path class="cls-3" d="M-711.78,950.36c26.73,130.29,177.3,217.2,305.31,181.14,103.23-29.1,174.24-118,239.19-204.18,16.45-21.8,33.58-44,51.21-65.23,51.89-62.48,112-110.86,179.61-132.26,46-14.57,97.43-24.82,144.48-.71,63,32.07,94.09,105.94,121.8,170.06,1.66,3.8,3.37,7.63,5.1,11.46,27.25,60.43,68.74,123.81,133.67,139.74,51.78,12.91,103.17-7.84,141.58-41.44q9.35-8.22,18.05-17.45c30-31.56,52.22-69.73,78.27-105.62C753,822.16,816,777.44,879.65,747.24c94.25-44.75,229-41.31,311.59,43a245.51,245.51,0,0,1,17.18,19.55c31.79,40.26,52.67,88.19,83.19,128.9a268.88,268.88,0,0,0,18.59,22.24c90.93,97.29,261.77,104.81,361.24,18.31A253.68,253.68,0,0,0,1699.15,951c55.93-66.3,81.31-157.27,129.39-228.86,24.7-36.76,55.5-67.76,94.62-90.08,119.65-68.18,279.22-33.48,377.12,60.87,65.23,62.88,107.65,148.23,178.24,206.82a322.7,322.7,0,0,0,152.22,69.33c49.14,8,97.31,3.59,135.78-13,36.9-15.88,65.46-40.66,108-56.26,34.82-12.94,76.28-16.54,119.31-13.73a589.87,589.87,0,0,1,152.44,31.31c83.83,29.59,143.59,66.82,182.12,92.46" transform="translate(773.12 -0.01)"/><path class="cls-3" d="M-712.82,971.37c26.67,129.16,176.51,214.14,303.5,178.58,102.32-28.68,173.45-115.85,238-201.13,16.34-21.6,33.27-43.56,50.59-64.74C-69.79,822-11.16,773,55,749.75c46.61-16.37,99.2-28.11,147.37-4,64.55,32.06,95.53,108,122.84,173.82,1.63,3.9,3.32,7.83,5,11.77,27,62.1,68.5,127.47,134.8,143.33,52.77,12.81,105-9.52,143.64-44.43,6.26-5.69,12.28-11.73,18.13-18.08,30.13-32.58,52.49-71.64,79.22-108,47.78-64.72,113.37-108.91,179.62-137.67,94.61-41.08,227.27-35.13,308.57,48.93a250.63,250.63,0,0,1,16.93,19.45c31.36,40,52.27,87.37,82.87,127.44a261.9,261.9,0,0,0,18.62,21.85c91,95.43,260.51,101.21,357.93,14.16A251.84,251.84,0,0,0,1697.68,970c54.57-66.31,79-156.76,125.94-228,24.15-36.66,54.34-67.63,93.12-89.85,118.45-67.81,276.49-30.44,372.43,64.13C2355,781.18,2397.41,869,2469.74,928.33a316.51,316.51,0,0,0,156.63,68.13c50.61,6.83,100.1.49,139.16-18.59,37.44-18.3,65.91-45.93,109.07-63.49,35.37-14.53,77.71-19,121.63-16.31,53.28,3.24,109,15.77,155.22,33.58,85.05,32.39,145,74.91,184.87,106.2" transform="translate(773.12 -0.01)"/><path class="cls-3" d="M-713.86,992.38c26.6,128,175.72,211.08,301.68,176,101.42-28.27,172.67-113.66,236.77-198.09,16.24-21.38,33-43.17,50-64.24,50-61.71,107.16-111.41,171.92-136.41,47.17-18.21,101-31.39,150.26-7.33,66.11,32.07,97,110.07,123.87,177.59q2.42,6,5,12.07c26.67,63.78,68.27,131.14,135.94,146.92,53.75,12.71,106.87-11.19,145.69-47.41,6.3-5.91,12.35-12.16,18.22-18.71,30.22-33.6,52.77-73.55,80.17-110.44,49-65.72,117.18-109.49,186.08-136.71,94.95-37.52,225.54-28.95,305.55,54.87q8.77,9.19,16.68,19.36c30.94,39.73,51.88,86.55,82.54,126a257.18,257.18,0,0,0,18.66,21.47c91.16,93.56,259.25,97.6,354.62,10A252.62,252.62,0,0,0,1696.21,989c53.21-66.34,76.73-156.25,122.49-227.16,23.59-36.55,53.19-67.49,91.61-89.62,117.26-67.44,273.74-27.37,367.75,67.39,66.44,67,108.84,157.14,182.9,217.31,47.66,38.69,105.27,60.82,161.05,66.93,52.08,5.64,102.89-2.62,142.53-24.23,38-20.72,66.36-51.18,110.17-70.7,35.91-16.14,79.13-21.4,123.94-18.9,54.35,3,111.11,16.42,158,35.86,86.21,35.35,146.3,83,187.62,119.93" transform="translate(773.12 -0.01)"/><path class="cls-3" d="M-714.9,1013.39c26.54,126.89,174.94,208,299.86,173.45,100.52-27.84,171.89-111.46,235.56-195,16.14-21.18,32.65-42.79,49.38-63.75C-81,866.74-25.41,816.3,38,789.58c47.68-20.1,102.72-34.68,153.14-10.64C258.81,811,289.53,891.07,316,960.29q2.37,6.15,4.89,12.37c26.24,65.52,68,134.81,137.07,150.51,54.74,12.62,108.71-12.86,147.75-50.39q9.5-9.18,18.3-19.33c30.32-34.62,53.05-75.47,81.12-112.86,50.31-66.72,121-110.17,192.54-135.75,95.29-34.06,223.82-22.76,302.53,60.81q8.63,9.17,16.42,19.26c30.53,39.47,51.49,85.74,82.22,124.51a249.14,249.14,0,0,0,18.71,21.08c91.26,91.69,258,94,351.31,5.86a250.8,250.8,0,0,0,25.84-28.46c51.86-66.36,74.44-155.74,119-226.3,23-36.45,52-67.36,90.11-89.4,116.06-67.07,271-24.27,363,70.65,67,69.07,109.45,161.59,185.23,222.55,48.79,39.22,108.12,60.9,165.47,65.73,53.56,4.46,105.68-5.71,145.91-29.86,38.53-23.13,66.81-56.44,111.27-77.91,36.46-17.74,80.56-23.83,126.26-21.5,55.41,2.85,113.23,17.09,160.79,38.14,87.37,38.32,147.66,91.08,190.37,133.67" transform="translate(773.12 -0.01)"/><path class="cls-3" d="M-715.93,1034.41c26.46,125.75,174.14,204.95,298,170.88,99.61-27.42,171.1-109.27,234.34-192,16.05-21,32.35-42.41,48.78-63.26C-86.62,889.12-32.59,837.89,29.47,809.5c48.17-22,104.48-38,156-14,69.24,32.08,99.84,114.2,125.94,185.12q2.34,6.3,4.82,12.68c26,67.18,67.8,138.47,138.22,154.09C510.19,1160,565,1132.9,604.27,1094.06c6.38-6.34,12.48-13,18.39-20,30.41-35.64,53.32-77.37,82.06-115.27,51.58-67.72,124.76-110.94,199-134.79,95.64-30.71,222.1-16.58,299.52,66.74q8.49,9.15,16.17,19.18c30.1,39.2,51.09,84.91,81.9,123a244.47,244.47,0,0,0,18.74,20.7c91.37,89.82,256.72,90.39,348,1.71a252.68,252.68,0,0,0,25.22-28.55c50.5-66.38,72-155.33,115.59-225.46,22.41-36.39,50.88-67.22,88.61-89.16,114.87-66.71,268.13-21.16,358.36,73.91,67.56,71.18,110.05,166,187.56,227.79,49.91,39.74,111,61,169.89,64.53,55,3.27,108.47-8.81,149.28-35.5,39.07-25.54,67.25-61.69,112.37-85.12,37-19.35,82-26.26,128.57-24.09,56.47,2.65,115.36,17.75,163.57,40.41,88.54,41.29,149,99.17,193.13,147.41" transform="translate(773.12 -0.01)"/><path class="cls-3" d="M-717,1055.42c26.4,124.62,173.35,201.89,296.22,168.32,98.71-27,170.32-107.09,233.13-188.94,16-20.77,32-42,48.17-62.76C-92.23,911.5-39.82,859.45,21,829.41c48.62-24,106.25-41.25,158.92-17.26,70.8,32.07,101.27,116.26,127,188.88q2.29,6.45,4.75,13c25.66,68.86,67.56,142.14,139.35,157.68,56.7,12.43,112.4-16.2,151.84-56.35,6.42-6.55,12.55-13.43,18.49-20.58,30.5-36.66,53.59-79.29,83-117.68,52.85-68.73,128.54-111.83,205.46-133.84,96-27.46,220.37-10.4,296.5,72.68q8.35,9.12,15.92,19.08c29.68,38.94,50.7,84.1,81.57,121.58a238.3,238.3,0,0,0,18.78,20.31c91.48,87.95,255.45,86.8,344.69-2.44a250.94,250.94,0,0,0,24.6-28.64c49.14-66.4,69.71-154.81,112.14-224.61,21.86-36.28,49.72-67.09,87.11-88.93,113.67-66.34,265.29-18,353.67,77.17,68.07,73.31,110.65,170.5,189.88,233,51,40.26,113.81,61,174.31,63.32,56.51,2.09,111.32-11.83,152.66-41.12,39.68-27.89,67.7-67,113.47-92.34,37.55-21,83.42-28.69,130.89-26.68,57.53,2.46,117.48,18.4,166.35,42.69,89.7,44.25,150.38,107.24,195.89,161.14" transform="translate(773.12 -0.01)"/><path class="cls-3" d="M-718,1076.43c26.34,123.49,172.56,198.83,294.41,165.75,97.8-26.57,169.53-104.89,231.91-185.88,15.85-20.57,31.74-41.63,47.56-62.26C-97.84,933.87-47.1,881,12.43,849.33c49-26.06,108-44.54,161.81-20.58,72.37,32.08,102.71,118.33,128,192.65q2.26,6.6,4.68,13.28c25.38,70.54,67.33,145.81,140.49,161.27,57.68,12.33,114.25-17.86,153.9-59.33,6.45-6.77,12.61-13.86,18.57-21.21,30.6-37.68,53.86-81.2,84-120.09C758,925.58,836.16,882.5,915.76,862.44c96.39-24.29,218.65-4.21,293.48,78.62q8.21,9.09,15.67,19c29.26,38.68,50.3,83.28,81.24,120.12a232.39,232.39,0,0,0,18.83,19.93c91.58,86.08,254.18,83.19,341.38-6.59a252,252,0,0,0,24-28.73C1738.12,998.34,1757.75,910.46,1799,841c21.31-36.18,48.57-67,85.61-88.7,112.47-66,262.41-14.87,349,80.42,68.56,75.47,111.26,174.95,192.22,238.29,52.16,40.78,116.65,61.11,178.72,62.12,58,.9,114.12-14.94,156-46.76,40.22-30.31,68.15-72.21,114.57-99.55,38.1-22.56,84.84-31.13,133.2-29.27,58.59,2.26,119.61,19.06,169.14,45,90.85,47.22,151.74,115.33,198.64,174.88" transform="translate(773.12 -0.01)"/><path class="cls-3" d="M-719,1097.45c26.27,122.35,171.78,195.76,292.59,163.18,96.9-26.16,168.75-102.7,230.7-182.84,15.75-20.36,31.43-41.24,47-61.76,45.35-59.78,94.38-113.55,152.72-146.78,49.39-28.14,109.77-47.83,164.69-23.89,73.93,32.08,104.15,120.4,129.05,196.41q2.22,6.75,4.61,13.58c25.09,72.22,67.09,149.48,141.62,164.86,58.67,12.24,116.1-19.53,156-62.31,6.49-7,12.68-14.28,18.66-21.84,30.69-38.7,54.14-83.11,84.89-122.5,55.39-70.74,136.13-113.9,218.39-131.92,96.81-21.2,216.92,2,290.46,84.56q8.07,9.07,15.42,18.89c28.84,38.42,49.9,82.46,80.92,118.66a226.18,226.18,0,0,0,18.86,19.53c91.7,84.22,252.92,79.59,338.07-10.74a250.55,250.55,0,0,0,23.35-28.82c46.43-66.44,65.13-153.79,105.23-222.91,20.76-36.07,47.42-66.82,84.11-88.47,111.29-65.6,259.52-11.69,344.29,83.69,69,77.64,111.86,179.4,194.54,243.52,53.29,41.31,119.51,61.19,183.15,60.93,59.46-.29,116.9-18,159.41-52.4,40.76-32.73,68.59-77.47,115.67-106.76,38.65-24.16,86.27-33.56,135.51-31.87,59.66,2.07,121.74,19.73,171.93,47.25,92,50.17,153.1,123.41,201.39,188.61" transform="translate(773.12 -0.01)"/><path class="cls-3" d="M-720.08,1118.46c26.2,121.22,171,192.7,290.76,160.62,96-25.74,168-100.52,229.49-179.79,15.65-20.16,31.12-40.85,46.35-61.27C-109.06,978.63-61.79,924-4.6,889.16,45.11,858.92,106.93,838.05,163,862,238.47,894,268.56,984.43,293.06,1062.15q2.19,6.88,4.54,13.88c24.8,73.89,66.86,153.15,142.76,168.44,59.65,12.14,117.94-21.2,158-65.28,6.52-7.2,12.74-14.72,18.74-22.47,30.79-39.72,54.42-85,85.84-124.92,56.65-71.74,139.94-115.08,224.85-131,97.29-18.18,215.2,8.15,287.44,90.5q7.93,9,15.16,18.79c28.42,38.16,49.52,81.64,80.6,117.2a221.94,221.94,0,0,0,18.9,19.15c91.81,82.34,251.66,76,334.76-14.89a250.61,250.61,0,0,0,22.73-28.91c45.07-66.47,62.84-153.29,101.78-222.06,20.21-36,46.27-66.69,82.61-88.24,110.09-65.24,256.59-8.52,339.6,86.94,69.43,79.84,112.46,183.86,196.87,248.77,54.42,41.83,122.35,61.26,187.56,59.72,60.94-1.47,119.7-21.16,162.79-58,41.31-35.17,69-82.73,116.77-114,39.2-25.77,87.7-36,137.83-34.46,60.71,1.87,123.86,20.39,174.71,49.52,93.17,53.14,154.45,131.5,204.14,202.35" transform="translate(773.12 -0.01)"/><path class="cls-3" d="M-721.12,1139.47c26.13,120.08,170.19,189.64,289,158.06,95.09-25.32,167.18-98.33,228.27-176.74,15.55-20,30.82-40.47,45.75-60.78,43.47-59,88.93-114.57,145-150.93,50-32.39,113.3-54.4,170.46-30.51,77.07,32.08,107,124.53,131.13,203.95q2.14,7,4.47,14.18c24.51,75.57,66.62,156.82,143.9,172,60.63,12,119.78-22.88,160.05-68.27,6.56-7.42,12.81-15.14,18.83-23.1,30.89-40.74,54.69-86.93,86.79-127.33,57.92-72.74,143.78-116.36,231.3-130,97.83-15.23,213.48,14.34,284.43,96.44,5.2,6,10.15,12.26,14.91,18.7,28,37.89,49.12,80.82,80.27,115.73a216.23,216.23,0,0,0,18.94,18.76c91.92,80.48,250.4,72.38,331.46-19a250.26,250.26,0,0,0,22.1-29c43.71-66.49,60.55-152.77,98.33-221.21,19.66-35.86,45.11-66.55,81.11-88,108.89-64.87,253.63-5.32,334.9,90.2,69.82,82.07,113.06,188.31,199.2,254,55.55,42.35,125.2,61.33,192,58.52,62.41-2.66,122.48-24.27,166.16-63.66,41.85-37.59,69.49-88,117.86-121.19,39.75-27.37,89.13-38.42,140.15-37,61.78,1.67,126,21,177.49,51.79,94.34,56.11,155.82,139.59,206.9,216.09" transform="translate(773.12 -0.01)"/><path class="cls-3" d="M-722.16,1160.48c26.07,119,169.41,186.58,287.13,155.49,94.19-24.89,166.4-96.13,227.07-173.69,15.44-19.74,30.5-40.08,45.13-60.28,42.54-58.62,86.14-115.09,141.2-153,50.18-34.57,115.05-57.68,173.34-33.83,78.63,32.09,108.47,126.6,132.16,207.72,1.41,4.79,2.87,9.63,4.4,14.48,24.23,77.25,66.38,160.49,145,175.63,61.62,11.94,121.63-24.55,162.11-71.25,6.6-7.63,12.86-15.57,18.91-23.72,31-41.76,55-88.85,87.74-129.75,59.18-73.75,147.65-117.73,237.76-129,98.43-12.35,211.75,20.51,281.42,102.37,5.09,6,10,12.21,14.65,18.6,27.58,37.63,48.72,80,79.95,114.27a212.16,212.16,0,0,0,19,18.38c92,78.6,249.12,68.77,328.14-23.19a251.52,251.52,0,0,0,21.48-29.09c42.36-66.52,58.26-152.27,94.88-220.36,19.1-35.76,44-66.42,79.61-87.79,107.69-64.49,250.65-2.12,330.21,93.46,70.17,84.31,113.66,192.77,201.53,259.26,56.67,42.87,128,61.41,196.4,57.32,63.89-3.84,125.28-27.37,169.54-69.29,42.39-40,69.93-93.24,119-128.4,40.3-29,90.56-40.85,142.47-39.64,62.83,1.47,128.1,21.7,180.27,54.07,95.5,59.07,157.18,147.67,209.65,229.82" transform="translate(773.12 -0.01)"/><path class="cls-3" d="M-723.19,1181.5c26,117.81,168.61,183.52,285.31,152.92,93.28-24.47,165.61-94,225.85-170.64,15.35-19.54,30.2-39.69,44.53-59.79,41.6-58.23,83.3-115.61,137.35-155.08,50.35-36.76,116.82-61,176.23-37.13,80.19,32.09,109.9,128.66,133.2,211.48,1.38,4.89,2.82,9.83,4.33,14.78,23.93,78.93,66.14,164.16,146.17,179.22,62.6,11.85,123.48-26.22,164.16-74.23,6.64-7.85,12.93-16,19-24.35,31.08-42.78,55.25-90.76,88.68-132.16,60.46-74.75,151.57-119.19,244.23-128.07,99.08-9.51,210,26.69,278.4,108.31,5,6,9.78,12.16,14.4,18.51,27.15,37.36,48.32,79.18,79.62,112.8a206.66,206.66,0,0,0,19,18c92.14,76.74,247.86,65.18,324.83-27.34a251.11,251.11,0,0,0,20.86-29.18c41-66.53,56-151.75,91.43-219.51,18.55-35.65,42.81-66.28,78.1-87.55C1959,788.35,2100.16,853.56,2178,949.2c70.48,86.56,114.26,197.22,203.85,264.5,57.8,43.39,130.89,61.48,200.83,56.12,65.36-5,128.07-30.49,172.91-74.92,42.94-42.44,70.38-98.51,120.06-135.63,40.85-30.57,92-43.28,144.78-42.23,63.9,1.28,130.23,22.37,183.06,56.35,96.66,62,158.54,155.76,212.4,243.56" transform="translate(773.12 -0.01)"/><path class="cls-3" d="M-724.23,1202.51c25.93,116.68,167.82,180.46,283.49,150.36,92.39-24.06,164.83-91.76,224.64-167.6,15.25-19.33,29.89-39.3,43.92-59.28,40.67-57.85,80.41-116.14,133.51-157.16,50.47-39,118.58-64.25,179.12-40.45,81.76,32.09,111.34,130.73,134.23,215.25q2,7.48,4.26,15.09c23.65,80.6,65.91,167.82,147.31,182.8,63.59,11.75,125.33-27.89,166.21-77.21,6.68-8.06,13-16.42,19.09-25,31.18-43.8,55.52-92.66,89.63-134.57C762.9,1029,856.7,984,951.87,977.65c99.81-6.71,208.3,32.88,275.38,114.25q7.37,8.94,14.15,18.41c26.73,37.1,47.93,78.37,79.29,111.34a202.72,202.72,0,0,0,19.06,17.61c92.25,74.87,246.6,61.57,321.53-31.5a251.8,251.8,0,0,0,20.23-29.26c39.64-66.56,53.68-151.24,88-218.67,18-35.54,41.65-66.15,76.6-87.32,105.31-63.76,244.62,4.3,320.83,100,70.77,88.85,114.87,201.67,206.19,269.75,58.92,43.91,133.73,61.55,205.24,54.92,66.83-6.22,130.86-33.6,176.29-80.56,43.48-44.87,70.83-103.76,121.16-142.84,41.4-32.18,93.42-45.71,147.1-44.82,64.95,1.08,132.35,23,185.84,58.63,97.82,65,159.89,163.84,215.15,257.29" transform="translate(773.12 -0.01)"/><path class="cls-3" d="M-725.27,1223.52c25.87,115.55,167,177.4,281.67,147.79,91.49-23.63,164.05-89.56,223.43-164.54,15.15-19.13,29.58-38.92,43.31-58.79,39.74-57.46,77.47-116.64,129.67-159.23,50.54-41.24,120.35-67.54,182-43.76,83.32,32.09,112.78,132.79,135.26,219q2,7.63,4.2,15.39c23.35,82.28,65.67,171.49,148.44,186.39,64.57,11.66,127.17-29.56,168.27-80.19,6.71-8.28,13.06-16.84,19.17-25.6,31.27-44.82,55.8-94.58,90.58-137,63-76.75,159.51-122.33,257.15-126.15,100.61-3.94,206.58,39.06,272.36,120.18,4.82,6,9.43,12.07,13.89,18.32,26.32,36.84,47.54,77.55,79,109.88a197.55,197.55,0,0,0,19.09,17.23c92.36,73,245.34,58,318.22-35.65a251.67,251.67,0,0,0,19.61-29.36c38.29-66.58,51.39-150.73,84.53-217.81,17.44-35.43,40.5-66,75.1-87.09,104.11-63.4,241.57,7.51,316.14,103.23,71,91.15,115.47,206.13,208.51,275,60,44.44,136.59,61.63,209.66,53.72,68.31-7.4,133.66-36.71,179.67-86.19,44-47.29,71.28-109,122.26-150,41.94-33.78,94.84-48.14,149.41-47.41,66,.88,134.48,23.68,188.62,60.9,99,68,161.26,171.93,217.91,271" transform="translate(773.12 -0.01)"/><path class="cls-3" d="M-726.31,1244.54c25.81,114.41,166.25,174.33,279.86,145.22,90.58-23.21,163.26-87.37,222.21-161.5,15.05-18.92,29.28-38.53,42.71-58.29,38.8-57.07,74.49-117.14,125.83-161.31,50.55-43.49,122.1-70.82,184.89-47.07,84.88,32.1,114.21,134.86,136.3,222.78q2,7.79,4.13,15.69c23.06,84,65.43,175.16,149.57,190,65.56,11.56,129-31.23,170.32-83.17,6.75-8.49,13.13-17.27,19.26-26.23,31.37-45.84,56.08-96.49,91.52-139.4,64.26-77.75,163.55-124,263.61-125.19,101.49-1.21,204.86,45.24,269.35,126.12q7.08,8.89,13.64,18.23c25.89,36.57,47.14,76.73,78.65,108.41a192.65,192.65,0,0,0,19.14,16.84c92.46,71.13,244.07,54.36,314.9-39.8a250.89,250.89,0,0,0,19-29.44c36.93-66.6,49.1-150.22,81.08-217,16.89-35.32,39.34-65.88,73.6-86.86,102.91-63,238.49,10.73,311.44,106.5,71.21,93.47,116.08,210.58,210.85,280.23,61.17,45,139.43,61.7,214.08,52.52,69.78-8.59,136.44-39.82,183-91.83,44.57-49.71,71.72-114.27,123.36-157.26,42.49-35.39,96.27-50.57,151.72-50,67.08.68,136.61,24.34,191.41,63.17,100.14,70.94,162.62,180,220.66,284.78" transform="translate(773.12 -0.01)"/><path class="cls-3" d="M-727.34,1265.55c25.73,113.27,165.45,171.27,278,142.66s198.58-119.65,263.1-216.25c37.87-56.69,71.46-117.62,122-163.38S59.65,954.47,123.56,978.2c86.45,32.09,115.65,136.92,137.33,226.54s63.9,193.9,154.78,209.56c66.53,11.47,130.86-32.9,172.37-86.15s68.63-116.77,111.81-168.67c65.52-78.76,167.63-125.73,270.07-124.23s203.13,51.43,266.33,132.06c31.94,40.76,54.78,88.78,91.71,125.08,89.54,88,257,74.08,330.78-27.49,74.33-102.34,60.39-266,168.08-332.28,101.73-62.66,235.39,13.94,306.76,109.75s116.68,215,213.17,285.48c120.54,88,307.27,66.72,404.92-46.14,45.11-52.14,72.17-119.54,124.46-164.48,95.09-81.73,246.92-61,348.23,12.86s164,188.09,223.41,298.51" transform="translate(773.12 -0.01)"/><path class="cls-3" d="M-728.8,1254.49c20.76,84.39,103.23,139,191.13,149.6a247.67,247.67,0,0,0,89.29-5.12c54.42-13.57,102.75-41.92,144.47-78.93,45.36-40.24,82.75-90.08,115.5-141.12,9.79-15.28,19.39-30.83,29.25-46.27,27.26-42.71,56.4-84.09,94.33-116.51A241.86,241.86,0,0,1-14.61,983c43.48-21.37,92.86-28.63,137-10.54,21.87,8.92,39.88,22.59,54.85,39.47,42.88,48.44,61,123.44,75.86,190.28,8.81,39.94,21.81,82.61,41.88,119.4,25.34,46.44,61.85,82.91,113,91.25,52.41,8.56,103.36-17.3,142.19-54.94a278.31,278.31,0,0,0,29.48-33.72c22.15-29.77,39.75-62.6,58.36-94.87,15.23-26.39,31.28-52.55,50.8-76a295.7,295.7,0,0,1,46-44.59c63.86-49.7,143.7-71.9,225.28-72.08,34-.08,66.54,3.14,97.53,11.1,64.28,16.53,123.48,52,166.79,101.4,32.44,37,56.65,81,94.37,114.53a214.6,214.6,0,0,0,43.55,29.68,262.1,262.1,0,0,0,67.52,24.46c80.23,17,168-6.85,214.89-68.13,38-49.88,51.13-116.56,72.44-177,18.63-53,44.17-101.37,95.06-131.71a177.17,177.17,0,0,1,28.73-13.77c52.35-19.47,107.92-10.77,158.6,14.15a350.75,350.75,0,0,1,116.28,93.26c11.88,14.86,23.07,30.69,33.84,46.87,44.08,66.23,81.67,138.35,134.81,195.45a355.64,355.64,0,0,0,48.76,44c46.45,34.41,102.57,53,160,56.2,78.76,4.37,160.14-20.84,218.61-72.86a263.58,263.58,0,0,0,28.1-29.17c15.35-18.6,28.45-39,41.34-59.66,20.12-32.2,40-65.13,66.46-91.47a218.81,218.81,0,0,1,16.5-14.84c52.71-42.87,120.82-52.64,189.57-43.67a399,399,0,0,1,116.63,33.69,342,342,0,0,1,44,24.72,449.42,449.42,0,0,1,53.85,42.26c72.66,66.18,126.63,155.41,176.76,244.82" transform="translate(773.12 -0.01)"/><path class="cls-3" d="M-730.25,1243.44c22.31,84.24,104.57,139.66,192.88,151a247.54,247.54,0,0,0,89.91-4.67c54.91-13.45,103.76-42.12,144.89-80,44.73-41.21,80.07-92.07,112-143.84,9.54-15.51,19-31.25,28.85-46.86,27.29-43.13,57.59-84.08,96.32-115.31a235.3,235.3,0,0,1,50.92-31.37c43.75-19.71,92.64-25,135.8-5.59,21.36,9.53,38.83,23.7,53.21,40.94,41.18,49.56,57.21,124.77,70.87,192C253.4,1240,265.83,1283,286,1320.15c25.39,46.83,62.83,83.36,114.43,91.3,52.79,8.13,104-18.39,142.19-56.81a271.94,271.94,0,0,0,28.79-34.38c21.47-30.26,38.19-63.51,56.22-96.21,14.75-26.7,30.68-53.3,50.28-76.93a265.18,265.18,0,0,1,46.69-44.27c65-48.11,143.8-64,225.84-64.85,34.75-.35,66.64.2,96.89,6,62.77,12.06,121.44,42.57,165.41,87,33,33.25,58.5,73.24,97,104a248,248,0,0,0,44.21,27.72c21.67,10.84,44.47,20,67.46,25.79,79.26,19.87,164.78,1.32,209.49-54,36.46-45.11,48.08-106.55,69.44-162,18.64-48.73,46-93.35,97.47-123.08a209.51,209.51,0,0,1,29-13.83c52.65-20.23,106.2-14.63,155.32,6.81,42.26,18.45,83.26,46.6,116.08,84.55,12.39,14.32,23.94,30.08,35.06,46.17,45.51,65.9,84,138.46,137.54,196.3a368.46,368.46,0,0,0,49.05,44.62c46.69,35.06,103,54.59,160.89,58.36,79.46,5.17,162.3-20.46,220.07-74a259,259,0,0,0,27.58-29.92c15-19,27.63-39.84,40.25-60.83,19.7-32.76,39.77-66.36,67-92.21a212.51,212.51,0,0,1,16.91-14.41c53.65-41,121-46.59,190.25-37,40.58,5.62,81.29,15.91,117.72,31.26a348,348,0,0,1,44.26,22.39,440,440,0,0,1,54.37,38.81c73.87,61.32,131.43,147.66,183.44,236.85" transform="translate(773.12 -0.01)"/><path class="cls-3" d="M-731.7,1232.39c23.87,84.09,105.92,140.35,194.62,152.34a247.53,247.53,0,0,0,90.55-4.23c55.39-13.32,104.75-42.3,145.31-81.12,44.09-42.19,77.38-94.06,108.4-146.55,9.28-15.75,18.57-31.69,28.45-47.45,27.3-43.56,58.77-84.08,98.31-114.12a229.41,229.41,0,0,1,51.61-29.61c44-18,92.37-21.26,134.57-.63,20.84,10.18,37.8,24.79,51.59,42.4,39.47,50.68,53.57,126.07,65.86,193.75,7.39,40.7,19.16,83.92,39.4,121.52,25.44,47.21,63.79,83.81,115.81,91.33,53.16,7.72,104.66-19.48,142.19-58.67a266.39,266.39,0,0,0,28.1-35c20.78-30.75,36.64-64.44,54.08-97.55,14.28-27,30.08-54.07,49.76-77.83a240.78,240.78,0,0,1,47.36-44c66.19-46.5,143.9-55.76,226.39-57.6,35.49-.79,66.75-2.76,96.27.88,61.25,7.58,119.39,33.13,164,72.51,33.44,29.5,60.3,65.44,99.68,93.42,13.57,9.64,28.51,17.91,44.88,25.75,22,10.56,44.75,20.5,67.38,27.11,78.27,22.89,161.5,9.47,204.1-39.84,34.88-40.36,45.13-96.5,66.44-147,18.74-44.44,47.75-85.34,99.87-114.44a254.67,254.67,0,0,1,29.39-13.9c53-21,104.49-18.47,152-.53,40.82,15.4,81.69,39.11,115.89,75.83,12.86,13.81,24.81,29.47,36.28,45.49,46.94,65.55,86.21,138.57,140.26,197.14a381.93,381.93,0,0,0,49.35,45.28c46.92,35.72,103.34,56.17,161.76,60.52,80.16,6,164.46-20.08,221.53-75.08a255.94,255.94,0,0,0,27-30.66c14.6-19.45,26.82-40.67,39.17-62,19.27-33.31,39.55-67.58,67.46-92.95a203,203,0,0,1,17.33-14c54.52-39.25,121.15-40.53,190.93-30.4,40.94,6,82.16,15.12,118.81,28.82A361.55,361.55,0,0,1,3195,1111.4a434,434,0,0,1,54.88,35.35c75.08,56.47,136.23,139.91,190.12,228.88" transform="translate(773.12 -0.01)"/><path class="cls-3" d="M-733.15,1221.33c25.42,84,107.26,141.05,196.37,153.71a247,247,0,0,0,91.17-3.78c55.88-13.18,105.75-42.48,145.73-82.21,43.47-43.16,74.7-96,104.86-149.27,9-16,18.15-32.11,28-48,27.32-44,60-84.08,100.3-112.92A223.88,223.88,0,0,1-14.37,951c44.3-16.39,92.13-17.6,133.35,4.32,20.32,10.81,36.76,25.9,50,43.87,37.76,51.8,49.82,127.4,60.86,195.48,6.66,41.1,17.83,84.58,38.15,122.59,25.49,47.59,64.77,84.25,117.2,91.36,53.54,7.3,105.3-20.56,142.18-60.52a259.87,259.87,0,0,0,27.41-35.7c20.11-31.23,35.09-65.35,52-98.88,13.8-27.35,29.47-54.83,49.24-78.72a222.11,222.11,0,0,1,48-43.66c67.43-44.75,144-47.54,226.94-50.35,36.21-1.23,66.84-5.71,95.63-4.24,59.74,3.12,117.35,23.7,162.66,58.07,33.94,25.75,62.07,57.63,102.33,82.86,13.79,8.64,28.91,16.16,45.54,23.79,22.38,10.28,45,21,67.31,28.44,77.29,25.92,158.21,17.61,198.71-25.7,33.29-35.61,42.12-86.47,63.43-132,18.8-40.18,49.54-77.32,102.29-105.81a319.54,319.54,0,0,1,29.71-14c53.26-21.75,102.81-22.29,148.75-7.87,39.39,12.37,80.11,31.63,115.69,67.12,13.33,13.3,25.68,28.85,37.5,44.79,48.38,65.21,88.49,138.68,143,198a395.65,395.65,0,0,0,49.64,45.93,307.89,307.89,0,0,0,162.64,62.69c80.85,6.78,166.63-19.7,223-76.19a251,251,0,0,0,26.52-31.41c14.22-19.87,26-41.48,38.09-63.19,18.85-33.87,39.26-68.89,68-93.69A188.75,188.75,0,0,1,2829,1084.8c55.38-37.47,121.32-34.47,191.6-23.76,41.3,6.34,83.05,14.34,119.91,26.38a376.68,376.68,0,0,1,44.71,17.76,424.9,424.9,0,0,1,55.41,31.89c76.29,51.61,141,132.16,196.8,220.9" transform="translate(773.12 -0.01)"/><path class="cls-3" d="M-734.6,1210.28c27,83.8,108.61,141.74,198.11,155.08a247,247,0,0,0,91.8-3.33c56.38-13.06,106.75-42.67,146.15-83.31,42.84-44.13,72-98,101.31-152,8.77-16.2,17.75-32.54,27.65-48.63,27.34-44.4,61.14-84.07,102.29-111.72a217.47,217.47,0,0,1,53-26.08c44.57-14.75,91.89-14,132.13,9.26a148.11,148.11,0,0,1,48.32,45.34c36.17,52.84,46.08,128.73,55.86,197.21,5.93,41.49,16.51,85.24,36.92,123.65,25.53,48,65.73,84.7,118.58,91.4,53.92,6.89,106-21.65,142.18-62.38a254.91,254.91,0,0,0,26.72-36.35c19.43-31.72,33.53-66.28,49.81-100.23,13.32-27.66,28.87-55.59,48.72-79.61a205.4,205.4,0,0,1,48.71-43.34c68.61-43.12,144.11-39.35,227.5-43.11,36.93-1.67,66.94-8.67,95-9.36,58.22-1.35,115.3,14.26,161.27,43.63,34.45,22,63.8,49.82,105,72.31,14,7.63,29.3,14.41,46.2,21.83,22.75,10,45.34,21.44,67.25,29.76,76.31,29,154.92,25.78,193.3-11.55,31.72-30.85,39.12-76.45,60.44-117,18.85-35.9,51.33-69.31,104.7-97.17,9.89-5.13,20-9.76,30-14,53.57-22.51,101.16-26.11,145.47-15.21,38,9.35,78.51,24.14,115.5,58.41,13.79,12.78,26.54,28.24,38.72,44.09,49.8,64.88,90.75,138.8,145.71,198.84a410.21,410.21,0,0,0,49.94,46.59,312,312,0,0,0,163.52,64.85c81.54,7.59,168.78-19.33,224.44-77.29a248.52,248.52,0,0,0,26-32.17c13.84-20.29,25.19-42.3,37-64.36,18.43-34.43,39-70.14,68.46-94.44a178.71,178.71,0,0,1,18.17-13.12c56.23-35.71,121.48-28.41,192.28-17.13,41.66,6.7,83.93,13.55,121,24a398.39,398.39,0,0,1,44.95,15.43,419.4,419.4,0,0,1,55.92,28.44c77.5,46.75,145.83,124.4,203.48,212.93" transform="translate(773.12 -0.01)"/><path class="cls-3" d="M-736.06,1199.23c28.53,83.65,110,142.43,199.87,156.45a247,247,0,0,0,92.43-2.89,288.5,288.5,0,0,0,146.57-84.39c42.2-45.11,69.33-100,97.76-154.71,8.51-16.44,17.33-33,27.24-49.22,27.36-44.83,62.33-84.07,104.28-110.53a212.08,212.08,0,0,1,53.7-24.32c44.84-13.09,91.65-10.3,130.9,14.22a148.93,148.93,0,0,1,46.7,46.8c34.48,53.95,42.32,130.06,50.86,198.95,5.19,41.87,15.18,85.89,35.67,124.71,25.58,48.35,66.71,85.14,120,91.43,54.28,6.47,106.58-22.74,142.17-64.24a247.93,247.93,0,0,0,26-37c18.75-32.2,32-67.19,47.68-101.56,12.85-28,28.26-56.35,48.2-80.51,14.22-17.25,30.85-32,49.38-43,69.78-41.48,144.21-31.16,228-35.87,37.67-2.11,67.05-11.61,94.38-14.46,56.69-5.83,113.25,4.82,159.89,29.18,34.95,18.24,65.47,42,107.65,61.75,14.16,6.63,29.69,12.66,46.86,19.87,23.1,9.7,45.63,21.93,67.17,31.08,75.33,32,151.64,34,187.91,2.6,30.13-26.06,36.11-66.4,57.44-102.07,18.9-31.62,53.12-61.29,107.1-88.54,10-5,20.2-9.66,30.37-14.09,53.86-23.27,99.52-29.92,142.17-22.55,36.61,6.33,76.93,16.66,115.31,49.7,14.26,12.27,27.41,27.62,39.94,43.39,51.24,64.54,93,138.91,148.45,199.69a424.24,424.24,0,0,0,50.22,47.24,316.24,316.24,0,0,0,164.4,67c82.24,8.38,170.94-19,225.9-78.41A244.75,244.75,0,0,0,2682,1242c13.47-20.71,24.38-43.12,35.92-65.53,18-35,38.8-71.38,69-95.18a171,171,0,0,1,18.58-12.7c57.09-33.93,121.65-22.35,193-10.49,42,7.05,84.81,12.77,122.09,21.51a433.81,433.81,0,0,1,45.18,13.11,415.34,415.34,0,0,1,56.44,25c78.71,41.89,150.63,116.65,210.16,205" transform="translate(773.12 -0.01)"/><path class="cls-3" d="M-737.51,1188.17C-707.43,1271.68-626.2,1331.3-535.9,1346a247,247,0,0,0,93.06-2.44,280.22,280.22,0,0,0,147-85.49c41.57-46.09,66.65-102,94.21-157.43,8.25-16.66,16.93-33.4,26.85-49.81,27.38-45.25,63.51-84.06,106.27-109.33a206.86,206.86,0,0,1,54.39-22.56c45.11-11.43,91.41-6.65,129.68,19.17a150.43,150.43,0,0,1,45.07,48.27c32.79,55.07,38.55,131.4,45.86,200.68,4.45,42.27,13.85,86.55,34.42,125.77,25.63,48.74,67.68,85.59,121.37,91.47,54.66,6.06,107.23-23.82,142.17-66.09a244.91,244.91,0,0,0,25.33-37.67c18.07-32.69,30.42-68.12,45.54-102.91,12.37-28.3,27.66-57.11,47.68-81.4,14.32-17.39,31.17-32.11,50-42.72,71-39.85,144.32-23,228.61-28.62,38.39-2.57,67.15-14.57,93.74-19.58,55.18-10.3,111.21-4.61,158.52,14.74,35.44,14.49,67.1,34.21,110.3,51.2,14.33,5.63,30.09,10.9,47.52,17.9,23.46,9.42,45.92,22.42,67.1,32.41,74.37,35.08,148.34,42.18,182.52,16.74,28.54-21.25,33.1-56.35,54.43-87.09,19-27.33,54.91-53.28,109.52-79.9,10.16-4.91,20.45-9.57,30.69-14.16,54.17-24,97.93-33.73,138.89-29.89,35.27,3.31,75.32,9.18,115.12,41,14.71,11.75,28.28,27,41.16,42.69,52.67,64.2,95.29,139,151.17,200.54a440.76,440.76,0,0,0,50.52,47.9c47.84,38.35,104.87,62.51,165.27,69.19,82.93,9.19,173.1-18.58,227.36-79.52a241.83,241.83,0,0,0,24.95-33.66c13.09-21.14,23.56-43.94,34.83-66.72,17.58-35.55,38.57-72.62,69.46-95.92a163.5,163.5,0,0,1,19-12.27c57.94-32.17,121.82-16.29,193.63-3.85,42.4,7.41,85.7,12,123.19,19.07,15.94,3,31.06,6.53,45.4,10.79a406.15,406.15,0,0,1,57,21.53c79.92,37,155.43,108.9,216.84,197" transform="translate(773.12 -0.01)"/><path class="cls-3" d="M-739,1177.12c31.63,83.36,112.65,143.82,203.36,159.2a246.88,246.88,0,0,0,93.69-2c57.84-12.67,109.73-43.23,147.41-86.58,40.94-47.06,64-104,90.66-160.14,8-16.9,16.51-33.84,26.45-50.41C-150,991.53-112.7,953.13-69.14,929.06A202,202,0,0,1-14,908.26c45.39-9.78,91.17-3,128.45,24.12a151.67,151.67,0,0,1,43.44,49.74c31.1,56.18,34.8,132.73,40.86,202.42,3.72,42.66,12.53,87.19,33.19,126.83,25.67,49.12,68.65,86,122.75,91.51,55,5.63,107.87-24.92,142.16-68a242.38,242.38,0,0,0,24.65-38.33c17.32-33.21,28.87-69,43.4-104.24,11.89-28.62,27.06-57.87,47.16-82.3,14.42-17.53,31.5-32.21,50.72-42.4,72.12-38.22,144.43-14.83,229.17-21.38,39.12-3,67.24-17.53,93.11-24.69,53.66-14.78,109.16-14.05,157.13.29,35.95,10.73,68.69,26.43,113,40.64,14.49,4.65,30.48,9.15,48.19,15.94,23.81,9.13,46.21,22.91,67,33.73,73.4,38.17,145,50.44,177.12,30.89,26.94-16.41,30.1-46.27,51.44-72.11,19-23,56.7-45.26,111.93-71.27,10.29-4.8,20.69-9.47,31-14.22,54.48-24.8,96.47-34.56,135.61-37.23,33.89-2.32,73.7,1.71,114.92,32.28,15.17,11.24,29.15,26.38,42.38,42,54.11,63.87,97.57,139.14,153.9,201.39a456,456,0,0,0,50.81,48.55c48.08,39,105.25,64.1,166.16,71.36,83.62,10,175.25-18.2,228.81-80.63a238.56,238.56,0,0,0,24.42-34.41c12.71-21.56,22.75-44.76,33.75-67.89,17.15-36.11,38.35-73.86,70-96.66a153,153,0,0,1,19.42-11.84c58.77-30.41,122-10.24,194.31,2.78,42.75,7.77,86.58,11.2,124.27,16.64,16,2.34,31.21,5,45.64,8.46a409.67,409.67,0,0,1,57.48,18.08c81.06,32.34,160.23,101.15,223.52,189" transform="translate(773.12 -0.01)"/><path class="cls-3" d="M-740.41,1166.06c33.19,83.22,114,144.52,205.1,160.58a247.14,247.14,0,0,0,94.32-1.55c58.33-12.54,110.74-43.43,147.83-87.68,40.31-48,61.28-106,87.11-162.86a510.78,510.78,0,0,1,26.05-51c27.42-46.09,65.88-84.06,110.25-106.94a197,197,0,0,1,55.78-19c45.66-8.12,90.93.64,127.23,29.08a153.5,153.5,0,0,1,41.81,51.2c29.41,57.3,31,134.07,35.86,204.15,3,43.06,11.2,87.85,31.94,127.9,25.72,49.5,69.62,86.47,124.14,91.54,55.42,5.22,108.52-26,142.16-69.82a237,237,0,0,0,23.95-39c16.64-33.69,27.32-70,41.27-105.57,11.42-28.94,26.45-58.64,46.64-83.2,14.52-17.67,31.82-32.32,51.39-42.09,73.29-36.6,144.54-6.68,229.72-14.14,39.85-3.49,67.35-20.47,92.49-29.8,52.14-19.24,107.11-23.48,155.75-14.15,36.45,7,70.24,18.69,115.61,30.09,14.63,3.67,30.88,7.4,48.85,14,24.17,8.85,46.51,23.41,67,35.06,72.42,41.26,141.65,58.74,171.72,45,25.3-11.53,27.07-36.18,48.44-57.13,19-18.69,58.49-37.24,114.33-62.63,10.43-4.69,20.94-9.39,31.35-14.29,54.77-25.56,94.87-41.41,132.32-44.57,32.7-2.77,72.08-5.76,114.73,23.56,15.62,10.74,30,25.78,43.59,41.31,55.54,63.52,99.85,139.25,156.63,202.23a473,473,0,0,0,51.11,49.21c48.3,39.67,105.63,65.68,167,73.52,84.32,10.8,177.41-17.83,230.27-81.73a235.41,235.41,0,0,0,23.89-35.17c12.34-22,21.94-45.58,32.67-69.06,16.73-36.67,38.12-75.11,70.46-97.41a148,148,0,0,1,19.83-11.41c59.62-28.65,122.15-4.18,195,9.42,43.12,8.13,87.46,10.42,125.37,14.2,16.12,1.65,31.35,3.54,45.87,6.15a408.39,408.39,0,0,1,58,14.62c82.28,27.49,165,93.4,230.2,181" transform="translate(773.12 -0.01)"/><path class="cls-3" d="M-741.87,1155c34.75,83.07,115.35,145.21,206.86,162a247,247,0,0,0,94.95-1.11c58.81-12.41,111.73-43.61,148.25-88.77,39.67-49,58.59-108,83.56-165.57a455.78,455.78,0,0,1,25.65-51.59c27.43-46.51,67.06-84,112.23-105.73a192,192,0,0,1,56.48-17.28c45.93-6.47,90.69,4.28,126,34A155.42,155.42,0,0,1,152.3,973.6C180,1032,179.55,1109,183.15,1179.48c2.23,43.45,9.88,88.51,30.71,129,25.76,49.89,70.59,86.92,125.52,91.58,55.79,4.8,109.16-27.09,142.16-71.68a233.44,233.44,0,0,0,23.26-39.64c15.95-34.18,25.76-70.87,39.13-106.92,10.94-29.26,25.85-59.39,46.12-84.08,14.61-17.83,32.15-32.43,52.06-41.78,74.45-35,144.65,1.45,230.28-6.9,40.58-4,67.45-23.43,91.85-34.92,50.62-23.71,105.07-32.91,154.38-28.59,36.94,3.23,71.75,11,118.26,19.53,14.76,2.72,31.28,5.65,49.51,12,24.53,8.57,46.8,23.91,66.89,36.38,71.44,44.38,138.21,67.08,166.33,59.18,23.6-6.63,24-26.06,45.43-42.15,19.07-14.34,60.23-29.35,116.75-54,10.55-4.6,21.18-9.29,31.67-14.35,55.08-26.32,93.4-45.3,129-51.91C1874,944.35,1913,937,1957,965.05c16.07,10.23,30.88,25.16,44.82,40.61,57,63.19,102.11,139.36,159.35,203.08a492.55,492.55,0,0,0,51.4,49.87c48.54,40.32,106,67.26,167.91,75.68,85,11.6,179.58-17.45,231.73-82.84a234.33,234.33,0,0,0,23.37-35.91c12-22.41,21.12-46.4,31.58-70.24,16.3-37.23,37.9-76.35,71-98.15a139.82,139.82,0,0,1,20.25-11c60.45-26.89,122.32,1.88,195.67,16.06,43.48,8.49,88.34,9.63,126.46,11.77,16.2.94,31.49,2,46.09,3.82a409.91,409.91,0,0,1,58.52,11.17C3268.63,1101.63,3355,1164.62,3422,1252" transform="translate(773.12 -0.01)"/><path class="cls-3" d="M-743.32,1144c36.3,82.92,116.7,145.9,208.6,163.32a246.93,246.93,0,0,0,95.58-.67c59.3-12.27,112.73-43.79,148.67-89.85,39-50,55.91-110,80-168.3a415.66,415.66,0,0,1,25.24-52.18c27.46-46.93,68.25-84,114.23-104.53a188,188,0,0,1,57.17-15.52c46.2-4.82,90.45,7.92,124.78,39a157.6,157.6,0,0,1,38.55,54.15c26,59.53,23.47,136.73,25.86,207.61,1.48,43.84,8.55,89.16,29.46,130,25.81,50.27,71.56,87.36,126.91,91.61,56.17,4.39,109.81-28.18,142.15-73.53a229.3,229.3,0,0,0,22.57-40.31c15.27-34.66,24.21-71.79,37-108.25,10.47-29.58,25.25-60.16,45.6-85,14.71-18,32.47-32.53,52.73-41.47,75.61-33.36,144.76,9.58,230.84.35,41.3-4.43,67.55-26.38,91.22-40,49.1-28.19,103-42.35,153-43,37.45-.53,73.25,3.31,120.92,9,14.89,1.77,31.67,3.89,50.18,10,24.88,8.28,47.08,24.41,66.81,37.71,70.47,47.49,134.63,75.41,160.94,73.32,21.79-1.73,20.94-15.92,42.43-27.17,19-10,62-21.34,119.16-45.36,10.68-4.49,21.43-9.2,32-14.42,55.38-27.08,92-49.25,125.74-59.25,30.28-9,68.82-20.68,114.35,6.14,16.51,9.73,31.75,24.54,46,39.91,58.41,62.85,104.39,139.48,162.08,203.93a508.92,508.92,0,0,0,51.7,50.52c48.76,41,106.4,68.85,168.79,77.86,85.7,12.4,181.73-17.08,233.18-84a231,231,0,0,0,22.84-36.66c11.59-22.83,20.31-47.22,30.49-71.42,15.89-37.79,37.69-77.58,71.47-98.88a132.86,132.86,0,0,1,20.67-10.56c61.27-25.15,122.48,7.93,196.34,22.69,43.85,8.84,89.23,8.85,127.55,9.33,16.29.24,31.64.55,46.33,1.5a414.18,414.18,0,0,1,59,7.71c84.72,17.81,174.63,77.9,243.57,165.1" transform="translate(773.12 -0.01)"/><path class="cls-3" d="M-744.77,1132.9c37.85,82.78,118,146.6,210.35,164.7a247.19,247.19,0,0,0,96.2-.22c59.8-12.15,113.73-44,149.1-91,38.41-51,53.22-112,76.46-171,7-17.83,14.87-35.56,24.85-52.77,27.47-47.36,69.43-84,116.22-103.34a184,184,0,0,1,57.86-13.76c46.48-3.16,90.22,11.55,123.55,43.92a160.21,160.21,0,0,1,36.93,55.62c24.32,60.65,19.69,138.07,20.86,209.34.72,44.24,7.22,89.82,28.22,131.08,25.86,50.66,72.53,87.81,128.29,91.65,56.55,4,110.45-29.26,142.15-75.39a226.9,226.9,0,0,0,21.88-41c14.59-35.16,22.65-72.71,34.86-109.6,10-29.89,24.64-60.91,45.07-85.87,14.82-18.11,32.81-32.63,53.41-41.16,76.77-31.74,144.86,17.7,231.39,7.59,42-4.9,67.65-29.33,90.6-45.14,47.58-32.66,101-51.78,151.61-57.48,38-4.28,75.41-10.12,123.58-1.58,14.79,2.62,32.06,2.14,50.83,8.08,25.25,8,47.38,24.92,66.74,39,69.48,50.63,130.91,83.65,155.54,87.46,19.88,3.09,17.8-5.79,39.44-12.19,19-5.63,63.81-13.33,121.56-36.73,10.82-4.38,21.67-9.13,32.33-14.48,55.63-28,90.53-53.26,122.46-66.59,29.09-12.15,67.18-28.13,114.16-2.57,17,9.23,32.61,23.92,47.25,39.21,59.83,62.51,106.65,139.6,164.81,204.78a527.91,527.91,0,0,0,52,51.18c49,41.64,106.78,70.43,169.67,80,86.4,13.2,183.89-16.7,234.64-85.06a228.83,228.83,0,0,0,22.32-37.42c11.2-23.26,19.5-48,29.4-72.59,15.47-38.35,37.47-78.82,72-99.63a127.45,127.45,0,0,1,21.09-10.13c62.09-23.41,122.64,14,197,29.33,44.2,9.2,90.1,8.06,128.64,6.89,16.37-.45,31.78-.94,46.56-.82a419,419,0,0,1,59.55,4.26c85.93,13,179.43,70.14,250.24,157.12" transform="translate(773.12 -0.01)"/><path class="cls-3" d="M-746.22,1121.85c39.4,82.63,119.39,147.29,212.09,166.07a247.18,247.18,0,0,0,96.84.22c60.28-12,114.72-44.17,149.51-92,37.78-51.93,50.54-114,72.92-173.73,6.71-18,14.46-36,24.44-53.36,27.5-47.78,70.62-84,118.21-102.14a180.75,180.75,0,0,1,58.56-12c46.75-1.5,90,15.19,122.33,48.88A163.16,163.16,0,0,1,144,960.83c22.62,61.77,15.9,139.41,15.85,211.08,0,44.63,5.9,90.47,27,132.14,25.91,51,73.5,88.26,129.69,91.68,56.91,3.56,111.18-30.29,142.14-77.25a221.13,221.13,0,0,0,21.19-41.62c13.9-35.64,21.1-73.63,32.73-110.93,9.5-30.21,24-61.68,44.54-86.77,14.91-18.25,33.13-32.74,54.09-40.84,77.92-30.13,145,25.79,231.94,14.83,42.76-5.39,67.75-32.28,90-50.26,46.07-37.13,98.93-61.21,150.24-71.92,38.45-8,76.53-17.84,126.23-12.13,15,1.72,32.46.38,51.5,6.11,25.6,7.71,47.66,25.43,66.67,40.36,68.48,53.78,127.12,91.69,150.14,101.62,17.91,7.72,14.59,4.29,36.43,2.78,18.87-1.31,65.6-5.31,124-28.09a349.86,349.86,0,0,0,32.65-14.55c55.94-28.71,89.09-57.34,119.18-73.94,27.89-15.38,65.53-35.56,114-11.27,17.4,8.73,33.48,23.31,48.47,38.51,61.27,62.18,108.93,139.71,167.54,205.63a547.85,547.85,0,0,0,52.28,51.83c49.23,42.3,107.16,72,170.54,82.19,87.1,14,186-16.33,236.1-86.17a227.13,227.13,0,0,0,21.79-38.17c10.83-23.68,18.69-48.85,28.32-73.76,15-38.91,37.25-80.05,72.47-100.37a123.21,123.21,0,0,1,21.5-9.71c62.92-21.67,122.82,20.05,197.7,36,44.57,9.56,91,7.28,129.74,4.46,16.45-1.16,31.92-2.44,46.78-3.14,20.45-1,40-1.07,60.07.8,87.16,8.11,184.23,62.39,256.93,149.14" transform="translate(773.12 -0.01)"/><path class="cls-3" d="M-747.67,1110.79c41,82.49,120.73,148,213.83,167.44a247.15,247.15,0,0,0,97.47.68c60.77-11.89,115.72-44.36,149.93-93.14,37.15-52.9,47.86-116,69.37-176.45,6.46-18.28,14-36.41,24-54,27.51-48.2,71.8-84,120.2-100.94A177.34,177.34,0,0,1-13.57,844.2c47,.14,89.75,18.81,121.1,53.82a166,166,0,0,1,33.67,58.55c20.92,62.9,12.11,140.75,10.86,212.81-.79,45,4.57,91.13,25.74,133.21,25.95,51.41,74.47,88.7,131.07,91.71,57.29,3.14,111.83-31.37,142.14-79.1a219,219,0,0,0,20.49-42.28c13.23-36.13,19.55-74.55,30.6-112.27,9-30.54,23.43-62.44,44-87.67,15-18.39,33.45-32.85,54.76-40.53,79.07-28.51,145.06,33.89,232.5,22.08,43.48-5.88,67.85-35.24,89.33-55.37,44.55-41.61,96.88-70.65,148.85-86.37,39-11.79,77.69-19.4,128.89-22.69,15.24-1,32.86-1.36,52.16,4.16,26,7.42,47.94,25.94,66.6,41.68,67.48,56.93,123.45,99.53,144.75,115.76,16,12.2,11.36,14.3,33.43,17.76,18.73,2.93,67.39,2.7,126.39-19.46a292.14,292.14,0,0,0,33-14.61c56.23-29.47,87.61-61.47,115.89-81.28,26.66-18.67,63.88-43,113.77-20,17.84,8.23,34.34,22.69,49.69,37.81,62.7,61.84,111.2,139.83,170.26,206.48a568.67,568.67,0,0,0,52.57,52.49c49.46,43,107.55,73.59,171.43,84.35,87.78,14.81,188.2-16,237.55-87.28a224.84,224.84,0,0,0,21.26-38.91c10.46-24.11,17.88-49.68,27.24-75,14.62-39.46,37-81.28,73-101.11a118,118,0,0,1,21.92-9.27c63.73-20,123,26.1,198.37,42.6,44.94,9.92,91.88,6.49,130.83,2,16.54-1.86,32.07-3.93,47-5.46,20.55-2.1,40.23-3.4,60.59-2.65,88.38,3.25,189,54.63,263.6,141.17" transform="translate(773.12 -0.01)"/><path class="cls-3" d="M-749.13,1099.74c42.52,82.34,122.09,148.68,215.59,168.81a247.32,247.32,0,0,0,98.1,1.12c61.26-11.76,116.72-44.54,150.35-94.23,36.52-53.87,45.17-118,65.82-179.16,6.2-18.52,13.63-36.85,23.65-54.54,27.53-48.63,73-84,122.18-99.75a174.73,174.73,0,0,1,60-8.47C33.8,835.32,76,856,106.39,892.29a169.51,169.51,0,0,1,32,60c19.22,64,8.32,142.09,5.85,214.54-1.54,45.43,3.25,91.79,24.5,134.27,26,51.8,75.44,89.15,132.46,91.76,57.67,2.72,112.48-32.47,142.13-81A215.77,215.77,0,0,0,463.18,1269c12.54-36.61,18-75.47,28.46-113.61,8.55-30.85,22.82-63.2,43.5-88.56,15.11-18.53,33.78-33,55.43-40.21,80.23-26.91,145.17,42,233.06,29.31,44.21-6.36,67.94-38.18,88.7-60.48,43-46.07,94.83-80.09,147.47-100.81,39.45-15.54,79.18-26.88,131.54-33.24,15.36-1.87,33.25-3.12,52.82,2.19,26.32,7.14,48.23,26.45,66.53,43,66.47,60.1,120,107.29,139.36,129.91,14.27,16.64,8.16,24.23,30.43,32.74,18.61,7.11,69.18,10.71,128.79-10.82a251.57,251.57,0,0,0,33.31-14.68c56.54-30.23,86.1-65.65,112.61-88.62,25.4-22,62.23-50.43,113.57-28.7,18.28,7.74,35.22,22.08,50.91,37.12,64.13,61.5,113.47,139.94,173,207.33a589.11,589.11,0,0,0,52.87,53.14c49.69,43.62,107.93,75.18,172.3,86.52,88.48,15.62,190.36-15.57,239-88.39a224.53,224.53,0,0,0,20.74-39.66c10.08-24.53,17.06-50.5,26.15-76.12,14.19-40,36.81-82.51,73.47-101.85a113.44,113.44,0,0,1,22.34-8.85c64.54-18.22,123.14,32.16,199.05,49.24,45.3,10.28,92.75,5.71,131.92-.42,16.63-2.55,32.21-5.42,47.25-7.78,20.65-3.24,40.47-5.73,61.1-6.11,89.61-1.6,193.83,46.89,270.29,133.2" transform="translate(773.12 -0.01)"/><path class="cls-3" d="M-750.58,1088.69c44.07,82.19,123.43,149.37,217.33,170.18a247.33,247.33,0,0,0,98.73,1.57c61.75-11.63,117.72-44.74,150.77-95.33,35.89-54.84,42.49-120,62.27-181.88,5.94-18.75,13.23-37.27,23.25-55.13,27.55-49.05,74.17-84,124.18-98.55a172.11,172.11,0,0,1,60.64-6.71c47.57,3.46,89.29,26.07,118.65,63.73a172.88,172.88,0,0,1,30.42,61.48c17.51,65.15,4.51,143.43.85,216.28-2.3,45.82,1.92,92.44,23.26,135.33,26,52.18,76.41,89.59,133.84,91.79,58,2.3,113-33.61,142.13-82.83A215.42,215.42,0,0,0,454.86,1265c11.86-37.09,16.43-76.39,26.32-115,8.08-31.17,22.22-64,43-89.46,15.2-18.67,34.1-33.06,56.1-39.9,81.38-25.31,145.27,50,233.61,36.56,44.94-6.86,68-41.14,88.07-65.6A435.51,435.51,0,0,1,1048,876.44c40-19.31,80.69-34.33,134.19-43.81,15.49-2.74,33.65-4.87,53.49.23,26.67,6.85,48.5,27,66.46,44.33,65.45,63.27,116.6,115.07,134,144,12.64,21.1,5,34.12,27.43,47.72,18.56,11.25,71,18.73,131.21-2.19A219.76,219.76,0,0,0,1628.4,1052c56.91-30.88,84.54-69.86,109.32-96,24.09-25.36,60.59-57.85,113.39-37.41,18.72,7.25,36.08,21.47,52.12,36.43,65.57,61.16,115.75,140.05,175.72,208.17a614.55,614.55,0,0,0,53.16,53.8c49.92,44.27,108.32,76.76,173.18,88.69,89.18,16.41,192.53-15.21,240.47-89.5a222.79,222.79,0,0,0,20.21-40.42c9.7-24.95,16.25-51.32,25.07-77.29,13.77-40.59,36.59-83.75,74-102.6a110.13,110.13,0,0,1,22.76-8.42c65.35-16.51,123.3,38.22,199.72,55.88,45.66,10.63,93.64,4.93,133-2.85,16.71-3.26,32.35-6.92,47.47-10.11,20.76-4.37,40.73-8.07,61.62-9.56,90.83-6.47,198.64,39.14,277,125.23" transform="translate(773.12 -0.01)"/><path class="cls-3" d="M-752,1077.63c45.62,82,124.78,150.07,219.08,171.56a247.48,247.48,0,0,0,99.35,2c62.24-11.5,118.72-44.92,151.2-96.41,35.25-55.83,39.8-122,58.72-184.6,5.68-19,12.81-37.71,22.85-55.73,27.57-49.46,75.35-84,126.16-97.35a170.15,170.15,0,0,1,61.35-5c47.83,5.11,89.06,29.7,117.42,68.68a176.57,176.57,0,0,1,28.78,62.95c15.81,66.27.72,144.77-4.14,218-3.07,46.22.59,93.1,22,136.39,26.09,52.57,77.38,90,135.23,91.83,58.42,1.89,113.67-34.7,142.13-84.68a213.14,213.14,0,0,0,18.42-44.26c11.19-37.57,14.88-77.31,24.19-116.29,7.6-31.48,21.61-64.72,42.46-90.34,15.3-18.82,34.42-33.18,56.77-39.6,82.53-23.7,145.37,58.13,234.17,43.81,45.66-7.36,68.15-44.09,87.44-70.71a464,464,0,0,1,144.71-129.69c40.45-23.06,82.23-41.73,136.86-54.36,15.62-3.61,34-6.63,54.14-1.74,27,6.57,48.78,27.49,66.39,45.65,64.42,66.46,113.34,122.93,128.56,158.2,11.06,25.62,1.94,44,24.43,62.7,18.54,15.4,72.77,26.75,133.61,6.45a198.43,198.43,0,0,0,34-14.81c57.2-31.64,82.92-74.07,106-103.3,22.73-28.74,58.93-65.26,113.19-46.12,19.16,6.76,37,20.85,53.35,35.73,67,60.82,118,140.16,178.44,209a637,637,0,0,0,53.46,54.46c50.15,44.93,108.69,78.34,174.06,90.85,89.86,17.22,194.68-14.83,241.92-90.61a222.38,222.38,0,0,0,19.69-41.16c9.32-25.38,15.43-52.14,24-78.47,13.34-41.15,36.37-85,74.47-103.34a106,106,0,0,1,23.17-8c66.18-14.8,123.48,44.27,200.41,62.51,46,11,94.52,4.14,134.1-5.29,16.8-4,32.5-8.4,47.71-12.43,20.86-5.51,41-10.4,62.14-13,92.05-11.33,203.43,31.38,283.65,117.25" transform="translate(773.12 -0.01)"/><path class="cls-3" d="M-753.48,1066.58c47.17,81.9,126.12,150.76,220.82,172.93a247.75,247.75,0,0,0,100,2.45c62.72-11.36,119.71-45.1,151.61-97.5,34.62-56.8,37.12-124,55.18-187.32,5.42-19.21,12.4-38.13,22.44-56.31,27.59-49.89,76.54-84,128.16-96.16a168.38,168.38,0,0,1,62-3.19C34.86,808.25,75.6,834.8,103,875.11a180.53,180.53,0,0,1,27.16,64.42c14.09,67.4-3.09,146.1-9.15,219.75-3.83,46.61-.73,93.75,20.78,137.45,26.13,53,78.35,90.48,136.61,91.86,58.8,1.47,114.31-35.79,142.13-86.54a211.8,211.8,0,0,0,17.73-44.91c10.51-38.06,13.33-78.23,22.05-117.63,7.12-31.81,21-65.48,41.94-91.24,15.4-19,34.74-33.29,57.44-39.28,83.68-22.11,145.47,66.18,234.73,51,46.38-7.87,68.25-47,86.81-75.83a493.26,493.26,0,0,1,143.33-144.13c41-26.81,83.78-49.11,139.51-64.92,15.76-4.47,34.43-8.37,54.8-3.7,27.39,6.29,49.06,28,66.32,47,63.38,69.64,110.12,130.85,123.17,172.34,9.5,30.2-1.1,53.91,21.43,77.68,18.55,19.56,74.56,34.76,136,15.08a180.92,180.92,0,0,0,34.29-14.87c57.51-32.4,81.27-78.28,102.75-110.64,21.32-32.11,57.27-72.67,113-54.83,19.6,6.27,37.81,20.23,54.56,35,68.44,60.49,120.29,140.28,181.18,209.87a660.12,660.12,0,0,0,53.74,55.11c50.39,45.59,109.08,79.93,174.94,93,90.56,18,196.84-14.45,243.38-91.72a220.89,220.89,0,0,0,19.16-41.91c8.95-25.8,14.62-53,22.9-79.65,12.92-41.7,36.16-86.2,75-104.08a103.83,103.83,0,0,1,23.59-7.56c67-13.09,123.64,50.33,201.08,69.15,46.39,11.35,95.4,3.36,135.2-7.72,16.88-4.66,32.64-9.9,47.94-14.75,21-6.65,41.22-12.75,62.65-16.47,93.27-16.2,208.23,23.63,290.33,109.28" transform="translate(773.12 -0.01)"/><path class="cls-3" d="M-754.93,1055.52c48.72,81.76,127.47,151.46,222.57,174.31a247.76,247.76,0,0,0,100.61,2.9c63.22-11.24,120.71-45.3,152-98.6,34-57.77,34.43-126,51.62-190,5.17-19.45,12-38.57,22.05-56.91,27.6-50.31,77.72-84,130.14-95,21-4.37,42.47-5,62.74-1.42,48.38,8.42,88.62,36.94,115,78.58a184.82,184.82,0,0,1,25.53,65.88c12.38,68.52-6.9,147.44-14.15,221.48-4.6,47-2.07,94.41,19.53,138.52,26.18,53.33,79.32,90.92,138,91.89,59.17,1.06,115-36.87,142.12-88.4a208.68,208.68,0,0,0,17-45.57c9.84-38.54,11.78-79.15,19.92-119,6.65-32.13,20.41-66.25,41.42-92.14,15.5-19.1,35.06-33.4,58.11-39,84.84-20.51,145.57,74.24,235.28,58.29,47.11-8.37,68.35-50,86.18-80.94a523.1,523.1,0,0,1,142-158.57c41.45-30.57,85.36-56.46,142.16-75.47,15.91-5.33,34.83-10.13,55.47-5.67,27.75,6,49.32,28.54,66.24,48.31,62.34,72.82,106.89,138.82,117.78,186.48,7.94,34.81-4.13,63.83,18.42,92.66,18.59,23.74,76.36,42.78,138.44,23.72a167.08,167.08,0,0,0,34.62-14.94c57.81-33.16,79.57-82.48,99.46-118s55.62-80.07,112.8-63.54c20,5.79,38.69,19.61,55.79,34.33,69.86,60.15,122.55,140.39,183.9,210.71a684.72,684.72,0,0,0,54,55.78c50.61,46.25,109.46,81.51,175.81,95.18,91.26,18.83,199-14.07,244.84-92.83a219.31,219.31,0,0,0,18.63-42.66c8.58-26.22,13.81-53.78,21.82-80.82,12.5-42.26,35.94-87.42,75.47-104.82a100.4,100.4,0,0,1,24-7.14c67.79-11.39,123.8,56.39,201.76,75.79,46.75,11.71,96.28,2.57,136.29-10.16,17-5.36,32.78-11.39,48.16-17.07,21.07-7.79,41.48-15.08,63.18-19.92,94.48-21.08,213,15.87,297,101.3" transform="translate(773.12 -0.01)"/><path class="cls-3" d="M-756.39,1044.47c50.29,81.61,128.82,152.15,224.32,175.68a248.05,248.05,0,0,0,101.25,3.34c63.7-11.11,121.7-45.48,152.45-99.69,33.36-58.74,31.75-127.94,48.08-192.75,4.91-19.67,11.58-39,21.64-57.5,27.63-50.73,78.91-84,132.14-93.76,21.27-3.89,43-3.95,63.43.34,48.65,10.07,88.4,40.56,113.74,83.53A189.19,189.19,0,0,1,124.56,931c10.67,69.65-10.71,148.78-19.15,223.21-5.37,47.4-3.39,95.07,18.3,139.58,26.22,53.71,80.29,91.37,139.39,91.93,59.54.64,115.6-38,142.11-90.26a207.75,207.75,0,0,0,16.35-46.22c9.16-39,10.22-80.07,17.78-120.31,6.17-32.44,19.8-67,40.9-93,15.59-19.25,35.39-33.51,58.78-38.65,86-18.92,145.66,82.28,235.84,65.53,47.83-8.89,68.45-52.95,85.55-86a553.39,553.39,0,0,1,140.57-173c42-34.32,87-63.78,144.82-86,16.07-6.18,35.23-11.88,56.13-7.63,28.11,5.72,49.59,29.06,66.18,49.63,61.27,76,103.65,146.83,112.37,200.63,6.4,39.45-7.14,73.78,15.43,107.64,18.62,27.94,78.18,50.92,140.84,32.35a153.46,153.46,0,0,0,35-15c58.12-33.92,77.85-86.65,96.18-125.32s54-87.46,112.61-72.25c20.48,5.31,39.55,19,57,33.63,71.3,59.81,124.83,140.51,186.63,211.56a711.73,711.73,0,0,0,54.33,56.43c50.85,46.91,109.85,83.1,176.69,97.35,92,19.63,201.16-13.7,246.3-93.93a219.25,219.25,0,0,0,18.11-43.42c8.19-26.64,13-54.59,20.73-82,12.07-42.82,35.72-88.65,76-105.57a97.82,97.82,0,0,1,24.43-6.7c68.61-9.71,124,62.44,202.43,82.42,47.11,12.07,97.17,1.79,137.38-12.6,17.05-6.06,32.93-12.87,48.4-19.39,21.18-8.92,41.71-17.46,63.69-23.38,95.66-26.12,217.83,8.13,303.69,93.34" transform="translate(773.12 -0.01)"/><path class="cls-3" d="M-757.84,1033.42c51.84,81.46,130.17,152.84,226.07,177a248.44,248.44,0,0,0,101.87,3.79c64.19-11,122.7-45.67,152.87-100.79C-244.3,1053.76-248,983.54-232.5,918c4.66-19.91,11.17-39.43,21.25-58.09,27.64-51.16,80.09-84,134.12-92.57,21.6-3.41,43.62-2.88,64.13,2.1,48.92,11.73,88.19,44.18,112.52,88.48a193.69,193.69,0,0,1,22.27,68.82c9,70.77-14.53,150.11-24.15,225-6.14,47.79-4.72,95.72,17,140.64,26.28,54.09,81.26,91.81,140.78,92,59.92.22,116.24-39,142.11-92.12a205.2,205.2,0,0,0,15.66-46.89c8.55-39.49,8.66-81,15.64-121.64,5.7-32.77,19.2-67.77,40.38-93.93,15.69-19.39,35.71-33.62,59.46-38.34,87.13-17.33,145.74,90.33,236.39,72.78,48.55-9.41,68.55-55.9,84.91-91.17a583.91,583.91,0,0,1,139.2-187.46c42.45-38.07,88.62-71.1,147.47-96.58,16.24-7,35.62-13.64,56.8-9.6,28.46,5.44,49.85,29.58,66.1,51,60.21,79.21,100.41,154.86,107,214.78,4.83,44.09-10.15,83.72,12.43,122.61,18.67,32.14,80,58.94,143.25,41a144.26,144.26,0,0,0,35.27-15.07c58.42-34.68,76.11-90.81,92.89-132.66,16.9-42.13,52.31-94.85,112.42-81,20.92,4.84,40.42,18.39,58.23,32.94,72.73,59.48,127.1,140.62,189.35,212.41a740.24,740.24,0,0,0,54.63,57.09c51.07,47.56,110.22,84.68,177.57,99.52,92.64,20.43,203.31-13.33,247.75-95a218.43,218.43,0,0,0,17.58-44.16c7.82-27.07,12.18-55.42,19.65-83.17,11.65-43.39,35.51-89.88,76.47-106.31A95.53,95.53,0,0,1,2628.9,947c69.43-8,124.14,68.51,203.12,89.06,47.47,12.43,98.05,1,138.47-15,17.13-6.76,33.07-14.37,48.63-21.72,21.28-10,42-19.8,64.21-26.83,96.86-31,222.63.37,310.37,85.36" transform="translate(773.12 -0.01)"/><path class="cls-3" d="M-759.29,1022.36c53.39,81.32,131.52,153.54,227.81,178.43A248.43,248.43,0,0,0-429,1205c64.68-10.85,123.7-45.86,153.29-101.87,32.1-60.7,26.38-131.93,41-198.19,4.4-20.14,10.76-39.86,20.85-58.68,27.66-51.58,81.27-84,136.11-91.37,21.92-2.93,44.18-1.81,64.82,3.86,49.19,13.39,88,47.81,111.3,93.44A198.74,198.74,0,0,1,119,922.49c7.22,71.9-18.35,151.44-29.15,226.68-6.92,48.19-6.05,96.38,15.81,141.7,26.32,54.48,82.23,92.27,142.16,92,60.29-.2,116.89-40.14,142.1-94a203.23,203.23,0,0,0,15-47.54c7.88-40,7.12-81.91,13.51-123,5.22-33.08,18.6-68.52,39.86-94.82,15.79-19.53,36-33.73,60.13-38,88.29-15.74,145.83,98.37,236.94,80,49.27-9.92,68.66-58.85,84.29-96.28a614.36,614.36,0,0,1,137.82-201.9c42.95-41.83,90.28-78.41,150.12-107.14,16.41-7.87,36-15.38,57.46-11.56,28.82,5.15,50.12,30.11,66,52.28,59.13,82.41,97.17,162.91,101.59,228.93,3.27,48.77-13.17,93.69,9.42,137.59,18.72,36.36,81.77,67,145.67,49.62a136.23,136.23,0,0,0,35.6-15.13c58.72-35.44,74.35-94.94,89.6-140,15.38-45.44,50.66-102.23,112.23-89.68,21.36,4.36,41.28,17.77,59.44,32.24,74.16,59.14,129.37,140.74,192.08,213.26a770.08,770.08,0,0,0,54.92,57.74c51.31,48.23,110.61,86.27,178.45,101.69,93.34,21.23,205.48-13,249.21-96.16,7.54-14.35,12.86-29.41,17.06-44.91,7.44-27.49,11.37-56.24,18.55-84.35,11.23-43.94,35.3-91.09,77-107a93.73,93.73,0,0,1,25.25-5.85c70.24-6.33,124.3,74.57,203.79,95.7,47.84,12.78,98.93.22,139.57-17.47,17.22-7.46,33.23-15.82,48.85-24,21.41-11.15,42.21-22.14,64.73-30.29,98.08-35.84,227.43-7.38,317,77.38" transform="translate(773.12 -0.01)"/><path class="cls-3" d="M-760.74,1011.31c54.94,81.17,132.86,154.23,229.56,179.79A248.67,248.67,0,0,0-428,1195.79c65.17-10.72,124.7-46,153.71-103,31.47-61.67,23.7-133.92,37.44-200.91,4.14-20.36,10.34-40.28,20.44-59.26,27.68-52,82.46-84,138.11-90.18,22.24-2.46,44.75-.74,65.51,5.62,49.47,15,87.76,51.43,110.07,98.39a203.25,203.25,0,0,1,19,71.75c5.51,73-22.17,152.78-34.15,228.42-7.69,48.57-7.37,97,14.57,142.76,26.37,54.86,83.21,92.71,143.55,92,60.67-.61,117.53-41.23,142.1-95.84a202.94,202.94,0,0,0,14.28-48.2c7.2-40.47,5.56-82.83,11.37-124.32,4.74-33.4,18-69.29,39.34-95.71,15.88-19.68,36.35-33.85,60.8-37.72,89.44-14.16,145.92,106.4,237.5,87.26,50-10.45,68.75-61.8,83.66-101.39A644.94,644.94,0,0,1,965.69,749.18c43.46-45.58,92-85.71,152.79-117.69,16.58-8.72,36.41-17.14,58.11-13.53,29.18,4.87,50.39,30.63,66,53.61,58,85.61,93.91,171,96.2,243.07,1.69,53.44-16.18,103.66,6.42,152.57,18.76,40.58,83.55,75,148.07,58.26a129.37,129.37,0,0,0,35.93-15.2c59-36.21,72.59-99,86.32-147.34,13.86-48.73,49-109.6,112-98.39,21.81,3.88,42.16,17.16,60.67,31.55,75.59,58.8,131.64,140.84,194.81,214.1a799.21,799.21,0,0,0,55.21,58.4c51.54,48.88,111,87.85,179.32,103.85,94,22,207.64-12.57,250.67-97.27,7.42-14.6,12.55-29.91,16.53-45.66,7.07-27.91,10.56-57,17.47-85.52,10.81-44.5,35.09-92.31,77.49-107.79a91.49,91.49,0,0,1,25.67-5.42c71.06-4.66,124.47,80.62,204.46,102.33,48.21,13.14,99.82-.57,140.66-19.91,17.31-8.16,33.38-17.31,49.09-26.35,21.52-12.29,42.45-24.47,65.25-33.74,99.28-40.7,232.23-15.13,323.73,69.41" transform="translate(773.12 -0.01)"/><path class="cls-3" d="M-762.19,1000.25c56.49,81,134.21,154.93,231.3,181.17a248.82,248.82,0,0,0,103.76,5.13c65.66-10.59,125.7-46.23,154.14-104.06,30.83-62.64,21-135.91,33.88-203.62,3.88-20.6,9.94-40.72,20.05-59.86,27.7-52.43,83.64-84,140.09-89,22.57-2,45.33.33,66.21,7.39C37,754.11,74.8,792.46,96.09,840.75A208.78,208.78,0,0,1,113.47,914c3.78,74.14-26,154.11-39.15,230.15-8.47,49-8.7,97.68,13.32,143.83,26.42,55.24,84.18,93.15,144.94,92.07,61-1,118.18-42.31,142.1-97.69a202,202,0,0,0,13.59-48.87c6.51-41,4-83.74,9.23-125.65,4.27-33.72,17.39-70,38.82-96.61,16-19.82,36.67-34,61.47-37.41,90.59-12.58,146,114.43,238.06,94.51,50.7-11,68.85-64.76,83-106.51,29.36-86.32,76.42-165,135.06-230.79,44-49.34,93.68-93,155.44-128.25,16.77-9.57,36.8-18.89,58.78-15.48,29.53,4.57,50.64,31.15,65.89,54.92,57,88.81,90.63,179,90.79,257.22.12,58.13-19.19,113.65,3.43,167.55,18.8,44.81,85.34,83,150.48,66.89a122.89,122.89,0,0,0,36.25-15.26c59.34-37,70.82-103.15,83-154.68,12.33-52,47.36-117,111.84-107.1,22.24,3.41,43,16.54,61.88,30.85,77,58.46,133.91,141,197.54,214.95,17.5,20.35,35.9,40.32,55.5,59.06,51.77,49.53,111.38,89.43,180.21,106,94.72,22.84,209.79-12.2,252.12-98.37,7.3-14.87,12.23-30.43,16-46.41,6.69-28.34,9.75-57.88,16.39-86.7,10.38-45.06,34.87-93.53,78-108.54a90.25,90.25,0,0,1,26.09-5c71.87-3,124.63,86.68,205.14,109,48.56,13.5,100.7-1.35,141.75-22.34,17.39-8.86,33.52-18.81,49.32-28.68,21.62-13.43,42.7-26.8,65.76-37.2,100.5-45.55,237-22.88,330.41,61.44" transform="translate(773.12 -0.01)"/><path class="cls-3" d="M-763.65,989.2c58.06,80.88,135.56,155.62,233.06,182.54a249,249,0,0,0,104.39,5.57c66.14-10.46,126.69-46.41,154.55-105.15,30.2-63.61,18.33-137.9,30.34-206.34,3.62-20.83,9.52-41.14,19.64-60.45,27.72-52.84,84.83-84,142.09-87.77,22.89-1.51,45.9,1.39,66.9,9.14,50,18.35,87.35,58.67,107.62,108.28a214.94,214.94,0,0,1,15.76,74.69c1.92,75.27-29.83,155.44-44.16,231.88-9.25,49.36-10,98.34,12.09,144.89,26.46,55.63,85.15,93.6,146.32,92.11,61.42-1.44,118.82-43.4,142.1-99.55a201.42,201.42,0,0,0,12.89-49.52c5.84-41.44,2.45-84.67,7.1-127,3.79-34,16.79-70.81,38.3-97.5,16.08-20,37-34.08,62.14-37.1,91.75-11,146.09,122.45,238.62,101.75,51.41-11.5,68.95-67.7,82.39-111.61,27.84-90.8,74.37-174.44,133.68-245.24,44.45-53.09,95.41-100.3,158.09-138.8,17-10.42,37.2-20.65,59.44-17.45,29.89,4.29,50.9,31.67,65.82,56.25,55.85,92,87.36,187.11,85.4,271.36-1.46,62.82-22.2,123.63.42,182.53,18.85,49,87.14,91,152.9,75.53a117.88,117.88,0,0,0,36.58-15.33c59.63-37.73,69-107.23,79.75-162,10.8-55.26,45.71-124.34,111.64-115.81,22.69,2.93,43.89,15.92,63.1,30.15,78.47,58.12,136.19,141.08,200.27,215.8,17.62,20.54,36.12,40.73,55.8,59.71,52,50.2,111.75,91,181.08,108.18,95.42,23.65,211.95-11.82,253.58-99.48,7.18-15.12,11.92-30.94,15.48-47.16,6.31-28.77,8.93-58.7,15.3-87.87,10-45.62,34.65-94.75,78.49-109.28a88.8,88.8,0,0,1,26.5-4.57c72.7-1.31,124.8,92.74,205.82,115.61,48.93,13.86,101.58-2.13,142.85-24.78,17.47-9.56,33.66-20.3,49.54-31,21.73-14.56,42.95-29.14,66.29-40.65,101.7-50.41,241.83-30.63,337.09,53.47" transform="translate(773.12 -0.01)"/><path class="cls-3" d="M-765.1,978.15c59.61,80.73,136.91,156.31,234.8,183.91a249.48,249.48,0,0,0,105,6c66.64-10.33,127.69-46.61,155-106.25,29.57-64.59,15.64-139.89,26.78-209,3.37-21.06,9.12-41.58,19.25-61,27.74-53.27,86-84,144.07-86.58,23.21-1,46.47,2.46,67.6,10.9,50.28,20,87.15,62.29,106.4,113.24a220,220,0,0,1,14.12,76.15c.23,76.39-33.65,156.77-49.15,233.62-10,49.74-11.35,99,10.84,146,26.51,56,86.12,94,147.71,92.14,61.8-1.86,119.47-44.48,142.09-101.41,6.45-16.3,10.14-33.1,12.21-50.18,5.16-41.92.89-85.58,5-128.33,3.32-34.36,16.18-71.58,37.78-98.4,16.18-20.1,37.32-34.24,62.81-36.78,92.89-9.6,146.17,130.46,239.17,109,52.13-12,69.06-70.66,81.77-116.73,26.32-95.26,72.32-183.87,132.29-259.68,45-56.84,97.17-107.6,160.75-149.36,17.16-11.26,37.6-22.39,60.11-19.41,30.25,4,51.15,32.19,65.74,57.58,54.74,95.19,84.08,195.18,80,285.5-3,67.51-25.22,133.62-2.58,197.51,18.89,53.27,88.92,99,155.3,84.16a112.92,112.92,0,0,0,36.91-15.39c59.94-38.49,67.26-111.3,76.46-169.36,9.27-58.5,44.08-131.7,111.46-124.52,23.13,2.46,44.75,15.3,64.32,29.45,79.89,57.79,138.46,141.19,203,216.65,17.73,20.73,36.34,41.14,56.09,60.37,52.23,50.85,112.14,92.6,182,110.35,96.11,24.44,214.11-11.45,255-100.6,7.06-15.38,11.61-31.45,14.95-47.91,5.94-29.19,8.12-59.52,14.22-89.05,9.53-46.18,34.47-95.88,79-110a88.13,88.13,0,0,1,26.92-4.13c73.52.35,125,98.79,206.5,122.24,49.29,14.22,102.46-2.92,143.93-27.21,17.56-10.27,33.82-21.79,49.78-33.33,21.84-15.7,43.19-31.47,66.8-44.1,102.92-55.27,246.63-38.39,343.77,45.49" transform="translate(773.12 -0.01)"/><path class="cls-3" d="M-766.55,967.09c61.16,80.59,138.25,157,236.55,185.29,33.74,9.72,70.46,11.81,105.65,6.46,67.12-10.2,128.68-46.79,155.39-107.34,28.94-65.56,13-141.89,23.24-211.77,3.11-21.29,8.7-42,18.84-61.63,27.76-53.69,87.2-84,146.07-85.38,23.53-.56,47,3.53,68.29,12.66C38,727,74.53,771.26,92.65,823.57a224.06,224.06,0,0,1,12.5,77.62C103.67,978.7,67.67,1059.28,51,1136.54c-10.82,50.13-12.68,99.65,9.6,147,26.55,56.39,87.09,94.49,149.1,92.18,62.17-2.27,120.1-45.57,142.08-103.26,6.27-16.54,9.72-33.56,11.51-50.84,4.48-42.41-.65-86.51,2.83-129.68,2.84-34.67,15.58-72.33,37.26-99.29,16.27-20.24,37.64-34.35,63.48-36.47,94-8,146.25,138.48,239.73,116.24,52.84-12.58,69.15-73.61,81.13-121.85,24.81-99.73,70.28-193.3,130.92-274.12,45.45-60.6,98.93-114.91,163.4-159.91,17.36-12.12,38-24.15,60.77-21.38,30.61,3.72,51.41,32.72,65.68,58.9,53.62,98.39,80.79,203.27,74.61,299.65-4.64,72.21-28.14,143.58-5.58,212.49,19,57.48,90.71,107,157.71,92.8a109,109,0,0,0,37.24-15.46c60.24-39.25,65.48-115.35,73.17-176.7,7.74-61.73,42.43-139.05,111.26-133.24,23.58,2,45.63,14.7,65.54,28.76,81.33,57.45,140.73,141.31,205.72,217.5,17.85,20.92,36.56,41.56,56.39,61,52.46,51.51,112.52,94.19,182.84,112.52,96.8,25.25,216.26-11.07,256.49-101.71,6.94-15.63,11.29-32,14.43-48.66,5.56-29.61,7.3-60.33,13.13-90.22,9.11-46.74,34.24-97.11,79.49-110.76a86.41,86.41,0,0,1,27.34-3.71c74.35,2,125.13,104.85,207.17,128.88,49.66,14.57,103.35-3.7,145-29.65,17.64-11,34-23.28,50-35.64,21.94-16.85,43.44-33.81,67.32-47.56,104.12-60.13,251.43-46.14,350.45,37.52" transform="translate(773.12 -0.01)"/><path class="cls-3" d="M-768,956c62.71,80.44,139.6,157.7,238.29,186.66,33.89,10,70.85,12.19,106.28,6.91,67.61-10.07,129.69-47,155.82-108.43,28.3-66.54,10.27-143.89,19.68-214.49,2.86-21.53,8.3-42.44,18.45-62.23,27.78-54.11,88.38-84,148-84.18,23.86-.08,47.62,4.6,69,14.43,50.83,23.31,86.83,69.51,104,123.13a229.9,229.9,0,0,1,10.87,79.09C99.19,975.55,60.93,1056.32,43.22,1134c-11.68,50.49-14,100.3,8.36,148.07,26.6,56.77,88.06,94.93,150.49,92.22s120.75-46.66,142.08-105.13c6.1-16.77,9.29-34,10.82-51.5,3.8-42.89-2.21-87.42.69-131,2.36-35,15-73.1,36.74-100.19,16.37-20.38,38-34.46,64.15-36.15,95.21-6.39,146.33,146.48,240.29,123.47,53.55-13.11,69.25-76.56,80.5-126.95,23.28-104.21,68.23-202.74,129.54-288.57,46-64.35,100.71-122.21,166.06-170.47,17.55-13,38.38-25.9,61.42-23.34,31,3.44,51.66,33.24,65.61,60.23,52.5,101.58,77.66,211.36,69.21,313.79-6.11,76.92-31.18,153.59-8.58,227.47,19,61.73,92.51,115,160.13,101.43a104.8,104.8,0,0,0,37.56-15.53c60.55-40,63.71-119.39,69.89-184,6.21-65,40.79-146.4,111.07-141.94,24,1.53,46.49,14.08,66.76,28.06,82.76,57.11,143,141.42,208.44,218.35,18,21.11,36.77,42,56.68,61.68,52.7,52.17,112.91,95.76,183.72,114.68,97.5,26,218.43-10.7,258-102.81,6.81-15.89,11-32.47,13.9-49.41,5.19-30,6.49-61.16,12.05-91.4,8.69-47.3,34-98.35,80-111.51a85.71,85.71,0,0,1,27.75-3.28c75.18,3.67,125.3,110.91,207.86,135.52,50,14.93,104.22-4.49,146.12-32.09,17.73-11.66,34.1-24.77,50.23-38,22.05-18,43.69-36.15,67.84-51,105.33-65,256.23-53.89,357.13,29.55" transform="translate(773.12 -0.01)"/><path class="cls-3" d="M-769.46,945c64.27,80.3,141,158.4,240.05,188,34,10.18,71.23,12.56,106.91,7.35,68.09-9.94,130.68-47.17,156.23-109.52,27.67-67.51,7.59-145.88,16.14-217.21,2.6-21.76,7.88-42.87,18-62.81,27.79-54.54,89.56-84,150-83,24.18.39,48.19,5.67,69.68,16.19,51.1,25,86.6,73.15,102.72,128.09a235.34,235.34,0,0,1,9.24,80.55c-4.89,79.74-45.24,160.72-64.15,238.82-12.45,50.89-15.33,101,7.12,149.14,26.64,57.15,89,95.37,151.87,92.25s121.39-47.75,142.08-107c5.92-17,8.87-34.45,10.13-52.15,3.12-43.38-3.77-88.35-1.45-132.35,1.89-35.32,14.37-73.86,36.22-101.08,16.47-20.54,38.29-34.57,64.83-35.85,96.36-4.78,146.4,154.49,240.83,130.72,54.26-13.66,69.36-79.51,79.88-132.07,21.76-108.68,66.18-212.17,128.15-303,46.46-68.1,102.51-129.52,168.72-181,17.77-13.82,38.78-27.66,62.09-25.31,31.32,3.16,51.85,33.79,65.53,61.55,51.17,104.87,74.32,219.45,63.82,328-7.74,81.6-34.23,163.58-11.58,242.44,19,66,94.3,123.06,162.53,110.07a101.46,101.46,0,0,0,37.89-15.6c60.85-40.76,61.94-123.42,66.61-191.38,4.68-68.16,39.15-153.75,110.88-150.65,24.46,1.06,47.35,13.46,68,27.37,84.19,56.77,145.27,141.53,211.18,219.19,18.07,21.3,37,42.39,57,62.33,52.92,52.83,113.29,97.35,184.59,116.85,98.19,26.86,220.59-10.32,259.41-103.92,6.69-16.15,10.66-33,13.37-50.16,4.81-30.46,5.68-62,11-92.58,8.26-47.85,33.8-99.57,80.49-112.24a84.09,84.09,0,0,1,28.17-2.85c76,5.19,125.47,117,208.53,142.15,50.38,15.29,105.11-5.27,147.21-34.52,17.82-12.37,34.25-26.27,50.47-40.29,22.16-19.12,43.93-38.48,68.36-54.47,106.54-69.84,261-61.64,363.81,21.58" transform="translate(773.12 -0.01)"/><path class="cls-3" d="M-770.91,933.93c65.82,80.15,142.3,159.08,241.79,189.41,34.18,10.42,71.62,12.93,107.54,7.8,68.59-9.81,131.68-47.36,156.65-110.62C-237.88,952-260,872.65-252.33,800.6c2.34-22,7.47-43.3,17.64-63.41,27.82-55,90.75-84,152-81.79,24.51.87,48.76,6.74,70.38,18,51.37,26.62,86.38,76.78,101.5,133a241.43,241.43,0,0,1,7.61,82c-6.6,80.86-49,162.05-69.15,240.55-13.21,51.28-16.66,101.62,5.87,150.2,26.7,57.54,90,95.82,153.26,92.29s122-48.84,142.07-108.84c5.75-17.24,8.45-34.9,9.44-52.82,2.44-43.87-5.32-89.26-3.58-133.69,1.41-35.63,13.77-74.62,35.69-102,16.57-20.68,38.62-34.68,65.51-35.54,97.52-3.17,146.44,162.39,241.39,138,54.95-14.26,69.46-82.47,79.24-137.19,20.25-113.15,64.14-221.6,126.78-317.45,47-71.86,104.31-136.84,171.37-191.58,18-14.67,39.18-29.41,62.75-27.27,31.68,2.87,52.13,34.3,65.46,62.88,50.14,108,71,227.53,58.43,342.09-9.38,86.3-37.28,173.59-14.58,257.42,19.06,70.23,96.08,131.08,164.94,118.7a98.46,98.46,0,0,0,38.22-15.66c61.15-41.52,60-127.46,63.32-198.72,3-71.38,37.52-161,110.68-159.36,24.92.62,48.23,12.85,69.2,26.67,85.62,56.43,147.54,141.64,213.9,220,18.19,21.49,37.2,42.8,57.26,63,53.16,53.48,113.67,98.93,185.48,119,98.88,27.66,222.74-9.94,260.86-105,6.57-16.4,10.35-33.49,12.85-50.91,4.43-30.88,4.86-62.79,9.88-93.75,7.84-48.41,33.58-100.8,81-113A83.39,83.39,0,0,1,2523,874c76.85,6.91,125.63,123,209.21,148.79,50.74,15.65,106-6.06,148.3-37,17.9-13.06,34.39-27.76,50.7-42.61,22.26-20.26,44.18-40.81,68.87-57.92,107.75-74.7,265.83-69.39,370.49,13.6" transform="translate(773.12 -0.01)"/><path class="cls-3" d="M-772.36,922.88c67.38,80,143.64,159.77,243.54,190.78s228.06-5.7,265.24-103.47c34.47-90.66-17.27-200,26.29-286.64C-198.33,646-88.3,621-12.2,662.67s115,135.16,106.25,221.48C80.31,1019.81-32.61,1153.9,24.54,1277.7c26.74,57.92,91,96.27,154.64,92.32s122.68-49.92,142.07-110.7c19.21-60.21,1.4-125.33,3-188.5s38.15-137.09,101.34-138.09c98.69-1.57,146.54,170.49,242,145.2,55.67-14.75,69.55-85.41,78.61-142.29,32.77-205.8,140.94-398.73,299.42-534,18.19-15.53,39.57-31.16,63.42-29.24,32,2.59,52.4,34.8,65.39,64.2a683.58,683.58,0,0,1,53,356.24c-11,91-40.32,183.6-17.58,272.4s130.38,163.57,205.9,111.61c61.46-42.28,58.39-131.48,60-206.06s35.9-168.44,110.5-168.07c25.36.12,49.09,12.23,70.41,26,87.06,56.1,149.81,141.76,216.63,220.89s144.33,156.37,243.91,184.83,224.9-9.57,262.32-106.15c17.89-46.18,13.7-97.61,21.12-146.58s33.36-102,81.49-113.73c95.78-23.27,144.83,124,238.89,153.43,51.11,16,106.87-6.84,149.4-39.4s77.06-74.72,120.32-106.3c109-79.56,270.63-77.15,377.17,5.63" transform="translate(773.12 -0.01)"/></g></g></svg>