<svg xmlns="http://www.w3.org/2000/svg" viewBox="0 0 578.7 347.16"><g id="Layer_2" data-name="Layer 2"><g id="object"><path d="M19.89,284.56V241.35a2.5,2.5,0,0,1,2.5-2.5H576.2a2.5,2.5,0,0,1,2.5,2.5v43.21a2.5,2.5,0,0,1-2.5,2.5H22.39A2.5,2.5,0,0,1,19.89,284.56Zm5-40.71v38.21H573.7V243.85Z"/><path d="M19.89,344.66v-43.2a2.49,2.49,0,0,1,2.5-2.5H576.2a2.5,2.5,0,0,1,2.5,2.5v43.2a2.5,2.5,0,0,1-2.5,2.5H22.39A2.5,2.5,0,0,1,19.89,344.66Zm5-40.7v38.2H573.7V304Z"/><path d="M0,331.7V253.92a2.5,2.5,0,0,1,2.5-2.5H22.39a2.49,2.49,0,0,1,2.5,2.5V331.7a2.49,2.49,0,0,1-2.5,2.5H2.5A2.5,2.5,0,0,1,0,331.7Zm5-75.28V329.2H19.89V256.42Z"/><path d="M331.61,284.56V241.35a2.5,2.5,0,0,1,2.5-2.5H576.2a2.5,2.5,0,0,1,2.5,2.5v43.21a2.5,2.5,0,0,1-2.5,2.5H334.11A2.5,2.5,0,0,1,331.61,284.56Zm5-40.71v38.21H573.7V243.85Z"/><path d="M331.61,344.66v-43.2a2.49,2.49,0,0,1,2.5-2.5H576.2a2.5,2.5,0,0,1,2.5,2.5v43.2a2.5,2.5,0,0,1-2.5,2.5H334.11A2.5,2.5,0,0,1,331.61,344.66Zm5-40.7v38.2H573.7V304Z"/><path d="M34.85,301.46V284.17a2.49,2.49,0,0,1,2.5-2.5h523.9a2.49,2.49,0,0,1,2.5,2.5v17.29a2.5,2.5,0,0,1-2.5,2.5H37.35A2.5,2.5,0,0,1,34.85,301.46Zm5-14.79V299h518.9V286.67Z"/><path d="M191.79,115.68A47.66,47.66,0,1,1,239.44,68,47.71,47.71,0,0,1,191.79,115.68Zm0-90.31A42.66,42.66,0,1,0,234.44,68,42.7,42.7,0,0,0,191.79,25.37Z"/><path d="M403.24,115.68A47.66,47.66,0,1,1,450.9,68,47.71,47.71,0,0,1,403.24,115.68Zm0-90.31A42.66,42.66,0,1,0,445.9,68,42.69,42.69,0,0,0,403.24,25.37Z"/><path d="M345.53,85.42h-96a2.5,2.5,0,0,1-2.5-2.5V17.54a2.5,2.5,0,0,1,2.5-2.5h96a2.5,2.5,0,0,1,2.5,2.5V82.92A2.5,2.5,0,0,1,345.53,85.42Zm-93.53-5h91V20H252Z"/><path d="M403.24,56.31a13.67,13.67,0,1,1,13.67-13.67A13.69,13.69,0,0,1,403.24,56.31Zm0-22.34a8.67,8.67,0,1,0,8.67,8.67A8.68,8.68,0,0,0,403.24,34Z"/><path d="M377.87,81.69A13.67,13.67,0,1,1,391.53,68,13.68,13.68,0,0,1,377.87,81.69Zm0-22.34A8.67,8.67,0,1,0,386.53,68,8.68,8.68,0,0,0,377.87,59.35Z"/><path d="M403.24,107.07A13.67,13.67,0,1,1,416.91,93.4,13.69,13.69,0,0,1,403.24,107.07Zm0-22.34a8.67,8.67,0,1,0,8.67,8.67A8.68,8.68,0,0,0,403.24,84.73Z"/><path d="M428.62,81.69A13.67,13.67,0,1,1,442.29,68,13.69,13.69,0,0,1,428.62,81.69Zm0-22.34A8.67,8.67,0,1,0,437.29,68,8.68,8.68,0,0,0,428.62,59.35Z"/><path d="M191.79,56.31a13.67,13.67,0,1,1,13.67-13.67A13.68,13.68,0,0,1,191.79,56.31Zm0-22.34a8.67,8.67,0,1,0,8.67,8.67A8.68,8.68,0,0,0,191.79,34Z"/><path d="M166.41,81.69A13.67,13.67,0,1,1,180.08,68,13.68,13.68,0,0,1,166.41,81.69Zm0-22.34A8.67,8.67,0,1,0,175.08,68,8.68,8.68,0,0,0,166.41,59.35Z"/><path d="M191.79,107.07A13.67,13.67,0,1,1,205.46,93.4,13.68,13.68,0,0,1,191.79,107.07Zm0-22.34a8.67,8.67,0,1,0,8.67,8.67A8.68,8.68,0,0,0,191.79,84.73Z"/><path d="M217.16,81.69A13.67,13.67,0,1,1,230.83,68,13.68,13.68,0,0,1,217.16,81.69Zm0-22.34A8.67,8.67,0,1,0,225.83,68,8.67,8.67,0,0,0,217.16,59.35Z"/><path d="M249.5,161.5a29,29,0,1,1,29-29A29,29,0,0,1,249.5,161.5Zm0-53a24,24,0,1,0,24,24A24.05,24.05,0,0,0,249.5,108.46Z"/><path d="M249.5,151.67a19.19,19.19,0,1,1,19.19-19.19A19.21,19.21,0,0,1,249.5,151.67Zm0-33.38a14.19,14.19,0,1,0,14.19,14.19A14.21,14.21,0,0,0,249.5,118.29Z"/><path d="M345.53,161.5a29,29,0,1,1,29-29A29,29,0,0,1,345.53,161.5Zm0-53a24,24,0,1,0,24,24A24,24,0,0,0,345.53,108.46Z"/><path d="M345.53,151.67a19.19,19.19,0,1,1,19.19-19.19A19.21,19.21,0,0,1,345.53,151.67Zm0-33.38a14.19,14.19,0,1,0,14.19,14.19A14.21,14.21,0,0,0,345.53,118.29Z"/><path d="M460.89,231.63h0c-17.61,0-35.36-10.8-45.23-27.53,0,0,0-.09-.08-.14l-31-61.38H372.74a29,29,0,0,1-54.42,0H276.71a29,29,0,0,1-54.42,0H210.48l-31,61.38s-.05.09-.07.13c-9.61,16.45-27.85,27.5-45.38,27.5a41,41,0,0,1-15.71-3.08,45.48,45.48,0,0,1-24.78-59.16c3.83-13.86,35.67-128.88,39.22-135.08A68,68,0,0,1,234.43,15H360.61A68,68,0,0,1,462.29,34.27c3.55,6.2,35.39,121.22,39.22,135.08a45.48,45.48,0,0,1-24.78,59.16A41.46,41.46,0,0,1,460.89,231.63Zm-40.89-30c8.85,15,25.27,25,40.88,25h0a36.32,36.32,0,0,0,13.94-2.75,40.48,40.48,0,0,0,22-52.77c0-.09-.07-.19-.1-.28C482.52,119.38,460.46,41.23,458,36.76a63,63,0,0,0-94.86-17.29,2.5,2.5,0,0,1-1.59.57h-128a2.5,2.5,0,0,1-1.59-.57,63,63,0,0,0-94.87,17.29c-2.5,4.47-24.56,82.62-38.77,134.07,0,.09-.06.19-.1.28a40.48,40.48,0,0,0,22,52.77A36.09,36.09,0,0,0,134,226.59c15.79,0,32.27-10,41-25L206.71,139a2.51,2.51,0,0,1,2.23-1.37h15.15a2.5,2.5,0,0,1,2.4,1.78,24,24,0,0,0,46,0,2.49,2.49,0,0,1,2.39-1.78h45.21a2.49,2.49,0,0,1,2.39,1.78,24,24,0,0,0,46,0,2.5,2.5,0,0,1,2.4-1.78h15.15a2.51,2.51,0,0,1,2.23,1.37Z"/></g></g></svg>