<svg id="_Layer_" data-name="&lt;Layer&gt;" xmlns="http://www.w3.org/2000/svg" xmlns:xlink="http://www.w3.org/1999/xlink" viewBox="0 0 12168.21 4482.42"><defs><style>.cls-1,.cls-3,.cls-5,.cls-6{fill:none;}.cls-2{clip-path:url(#clip-path);}.cls-3,.cls-5,.cls-6{stroke:#000;stroke-miterlimit:10;}.cls-3,.cls-4{opacity:0.5;}.cls-6,.cls-7{opacity:0.25;}</style><clipPath id="clip-path" transform="translate(3720.92 -0.02)"><rect class="cls-1" x="0.02" y="0.02" width="4482.42" height="4482.42"/></clipPath></defs><g class="cls-2"><rect class="cls-1" x="3720.94" width="4482.42" height="4482.42"/><polygon class="cls-3" points="4483.03 1822.88 3652.9 1822.88 3652.9 1816.8 4480.52 1816.8 4602.14 1695.17 4967.03 1695.17 5094.53 1567.67 5098.84 1571.97 4969.55 1701.25 4604.66 1701.25 4483.03 1822.88"/><g class="cls-4"><polygon class="cls-5" points="6905.34 1944.51 6674.34 1944.51 6390.54 1660.71 5275.87 1660.71 5024.5 1912.09 5020.2 1907.79 5273.35 1654.62 6393.06 1654.62 6676.86 1938.42 6905.34 1938.42 6905.34 1944.51"/></g><g class="cls-4"><polygon class="cls-5" points="6622.77 1678.96 6516.67 1572.86 6247.65 1572.86 6247.65 1566.78 6519.2 1566.78 6627.07 1674.66 6622.77 1678.96"/></g><g class="cls-4"><polygon class="cls-5" points="4961.44 1571.97 4957.13 1567.67 5273.43 1251.38 5644.01 1251.38 5644.01 1257.46 5275.94 1257.46 4961.44 1571.97"/></g><polygon class="cls-3" points="9312.15 2244.67 8731.38 2244.67 8730.48 2243.78 8390.67 1903.97 8022.53 1903.97 8022.53 1897.89 8393.17 1897.89 8394.07 1898.78 8733.88 2238.59 9309.64 2238.59 9723.49 1824.74 9727.79 1829.04 9312.15 2244.67"/><polygon class="cls-1" points="9394.13 1943.62 9389.83 1939.31 9653.7 1675.45 9823.18 1675.45 10004.78 1493.86 10292.94 1493.86 10292.94 1499.94 10007.29 1499.94 9825.69 1681.54 9656.21 1681.54 9394.13 1943.62"/><polygon class="cls-3" points="7681.43 1903.97 7418.89 1903.97 7418.89 1897.89 7678.91 1897.89 7801.67 1775.13 8447.23 1775.13 8448.13 1776.02 8568.07 1895.96 8563.77 1900.26 8444.72 1781.21 7804.18 1781.21 7681.43 1903.97"/><polygon class="cls-3" points="7528.27 1626.35 7265.73 1626.35 7265.73 1620.27 7525.75 1620.27 7908.44 1237.58 8565.92 1237.58 8565.92 1243.66 7910.94 1243.66 7528.27 1626.35"/><polygon class="cls-1" points="11285.24 1669.72 11120.56 1669.72 11119.67 1668.83 10805.23 1354.38 10229.87 1354.38 10229.87 1348.3 10807.74 1348.3 10808.64 1349.19 11123.07 1663.63 11282.73 1663.63 11430.27 1516.1 11608.33 1516.1 11608.33 1522.18 11432.78 1522.18 11285.24 1669.72"/><polygon class="cls-1" points="11609.59 1722.22 11202.9 1722.22 11202.9 1716.13 11607.08 1716.13 11682.89 1640.33 11815.54 1640.33 11815.54 1646.41 11685.39 1646.41 11609.59 1722.22"/><polygon class="cls-1" points="9549.54 1612.52 9545.24 1608.21 9976.34 1177.12 11815.54 1177.12 11815.54 1183.2 9978.85 1183.2 9549.54 1612.52"/><g class="cls-4"><polygon class="cls-5" points="6996.7 1594.55 6832.86 1594.55 6435.03 1196.72 5911.05 1196.72 5753.38 1354.38 5436.79 1354.38 5436.79 1348.3 5750.86 1348.3 5908.52 1190.63 6437.55 1190.63 6835.38 1588.46 6994.18 1588.46 7113.56 1469.08 7327.54 1469.08 7450.1 1346.52 7454.4 1350.82 7330.05 1475.16 7116.07 1475.16 6996.7 1594.55"/></g><polygon class="cls-3" points="4005.53 1395.63 3652.9 1395.63 3652.9 1389.55 4003.01 1389.55 4165.53 1227.03 4374.79 1227.03 4374.79 1233.11 4168.05 1233.11 4005.53 1395.63"/><polygon class="cls-3" points="4293.84 1660.71 3652.9 1660.71 3652.9 1654.62 4291.31 1654.62 4663.23 1282.71 4667.53 1287.01 4293.84 1660.71"/><polygon class="cls-3" points="4160.4 3008.72 3594.34 3008.72 3594.34 3002.65 4157.88 3002.65 4337.21 2823.3 4589.88 2823.3 4589.88 2829.38 4339.74 2829.38 4160.4 3008.72"/><g class="cls-4"><polygon class="cls-5" points="5508.86 2828.95 5192.69 2828.95 5191.8 2828.07 5057.12 2693.38 4517.81 2693.38 4517.81 2687.3 5059.64 2687.3 5060.53 2688.19 5195.21 2822.89 5508.86 2822.89 5508.86 2828.95"/></g><g class="cls-4"><polygon class="cls-5" points="6359.87 3203.29 6138.26 2981.68 5795.9 2981.68 5795.01 2980.8 5506.71 2692.49 5511.01 2688.19 5798.42 2975.6 6140.78 2975.6 6141.67 2976.49 6364.17 3198.99 6359.87 3203.29"/></g><polygon class="cls-3" points="4591.14 3251.98 4013.85 3251.98 4013.85 3245.9 4588.62 3245.9 4786.83 3047.69 5382.72 3047.69 5382.72 3053.76 4789.35 3053.76 4591.14 3251.98"/><polygon class="cls-3" points="6546.21 2828.95 6301.69 2828.95 6301.69 2822.89 6543.69 2822.89 6899.79 2466.78 7420.15 2466.78 7421.04 2467.67 7557.43 2604.07 7750.63 2604.07 7901.25 2453.46 8282.54 2453.46 8407.98 2328.02 8412.28 2332.32 8285.05 2459.53 7903.75 2459.53 7753.15 2610.14 7554.91 2610.14 7554.02 2609.25 7417.63 2472.86 6902.3 2472.86 6546.21 2828.95"/><polygon class="cls-3" points="7825.56 2693.38 7554.02 2693.38 7554.02 2687.3 7823.06 2687.3 7924.95 2585.4 8565.92 2585.4 8565.92 2591.48 7927.46 2591.48 7825.56 2693.38"/><polygon class="cls-1" points="9491.08 2713.87 9158.74 2713.87 9157.84 2712.99 8777.17 2332.32 8781.48 2328.02 9161.25 2707.8 9491.08 2707.8 9491.08 2713.87"/><polygon class="cls-3" points="8357.13 3053.76 7992.41 3053.76 7992.41 3047.69 8354.63 3047.69 8572.06 2830.28 10564.47 2830.28 10565.37 2831.16 10691.19 2957 11111.55 2957 11409.8 2658.72 11414.1 2663.02 11114.06 2963.07 10688.68 2963.07 10687.79 2962.18 10561.96 2836.34 8574.56 2836.34 8357.13 3053.76"/><polygon class="cls-1" points="11087.92 2857.95 11083.62 2853.65 11415.26 2522.03 11892.13 2522.03 11892.13 2528.11 11417.77 2528.11 11087.92 2857.95"/><polygon class="cls-1" points="11130.86 3043.52 10680.21 3043.52 10679.32 3042.64 10560.19 2923.5 10229.87 2923.5 10229.87 2917.43 10562.7 2917.43 10563.59 2918.31 10682.72 3037.45 11128.35 3037.45 11507.96 2657.84 11892.13 2657.84 11892.13 2663.9 11510.47 2663.9 11130.86 3043.52"/><polygon class="cls-3" points="8230.99 3251.98 7599.07 3251.98 7599.07 3245.9 8228.49 3245.9 8341.1 3133.29 8564.67 3133.29 8736.68 2961.27 9258.08 2961.27 9258.98 2962.16 9467.97 3171.17 9806.41 3171.17 9806.41 3177.24 9465.46 3177.24 9464.57 3176.36 9255.57 2967.35 8739.19 2967.35 8567.17 3139.36 8343.6 3139.36 8230.99 3251.98"/><polygon class="cls-3" points="6573.24 3297.95 6353.57 3297.95 6352.68 3297.06 6164.4 3108.78 6168.71 3104.48 6356.09 3291.87 6570.72 3291.87 6859.49 3003.1 7696.91 3003.1 7817.14 2882.88 8157.66 2882.88 8157.66 2888.95 7819.64 2888.95 7699.44 3009.16 6862.01 3009.16 6573.24 3297.95"/><polygon class="cls-3" points="8104.86 3481.71 7683.41 3481.71 7682.51 3480.82 7597.81 3396.12 7265.73 3396.12 7265.73 3390.05 7600.33 3390.05 7601.22 3390.94 7685.92 3475.64 8102.35 3475.64 8274.42 3303.56 8278.72 3307.86 8104.86 3481.71"/><polygon class="cls-3" points="4015.25 2588.79 3512.72 2588.79 3512.72 2582.03 4012.45 2582.03 4363.29 2231.19 5098.84 2231.19 5098.84 2237.95 4366.08 2237.95 4015.25 2588.79"/><g class="cls-4"><polygon class="cls-5" points="5645.4 2413.36 4667.53 2413.36 4667.53 2406.6 5642.61 2406.6 5931.58 2117.65 6303.09 2117.65 6478.54 2293.09 7552.62 2293.09 7738.28 2107.43 7743.06 2112.21 7555.42 2299.85 6475.74 2299.85 6300.3 2124.4 5934.37 2124.4 5645.4 2413.36"/></g><polygon class="cls-1" points="10041.21 2570.14 9858.63 2570.14 9701.86 2413.36 9228.99 2413.36 9228.99 2406.6 9704.66 2406.6 9861.43 2563.38 10038.41 2563.38 10807.14 1794.65 11062.4 1794.65 11394.85 2127.1 12168.21 2127.1 12168.21 2133.85 11392.05 2133.85 11059.6 1801.4 10809.94 1801.4 10041.21 2570.14"/><polygon class="cls-1" points="12046.58 2333.52 11199.38 2333.52 11059.6 2193.73 10819.46 2193.73 10682.79 2330.4 10678.01 2325.63 10816.66 2186.98 11062.4 2186.98 11202.17 2326.76 12046.58 2326.76 12046.58 2333.52"/><polygon class="cls-1" points="970.32 1688.24 140.18 1688.24 140.18 1682.16 967.8 1682.16 1089.43 1560.53 1454.32 1560.53 1581.82 1433.03 1586.12 1437.33 1456.83 1566.61 1091.95 1566.61 970.32 1688.24"/><polygon class="cls-1" points="3392.63 1809.86 3161.63 1809.86 2877.82 1526.06 1763.16 1526.06 1511.78 1777.44 1507.48 1773.14 1760.64 1519.98 2880.35 1519.98 3164.15 1803.78 3392.63 1803.78 3392.63 1809.86"/><polygon class="cls-1" points="3110.06 1544.32 3003.96 1438.22 2734.94 1438.22 2734.94 1432.13 3006.48 1432.13 3114.36 1540.01 3110.06 1544.32"/><polygon class="cls-1" points="1448.72 1437.33 1444.41 1433.03 1760.71 1116.73 2131.29 1116.73 2131.29 1122.82 1763.23 1122.82 1448.72 1437.33"/><g class="cls-4"><polygon class="cls-5" points="5799.44 2110.03 5218.66 2110.03 5217.76 2109.14 4877.95 1769.33 4509.82 1769.33 4509.82 1763.24 4880.46 1763.24 4881.36 1764.13 5221.17 2103.94 5796.93 2103.94 6210.78 1690.1 6215.08 1694.4 5799.44 2110.03"/></g><g class="cls-4"><polygon class="cls-5" points="5881.42 1808.97 5877.12 1804.67 6140.98 1540.81 6310.47 1540.81 6492.07 1359.21 6780.22 1359.21 6780.22 1365.29 6494.58 1365.29 6312.98 1546.9 6143.5 1546.9 5881.42 1808.97"/></g><polygon class="cls-3" points="4168.71 1769.33 3906.18 1769.33 3906.18 1763.24 4166.2 1763.24 4288.96 1640.48 4934.52 1640.48 4935.41 1641.38 5055.35 1761.32 5051.05 1765.62 4932.01 1646.57 4291.46 1646.57 4168.71 1769.33"/><polygon class="cls-3" points="4015.55 1491.71 3753.01 1491.71 3753.01 1485.62 4013.03 1485.62 4395.72 1102.93 5053.2 1102.93 5053.2 1109.02 4398.23 1109.02 4015.55 1491.71"/><polygon class="cls-3" points="7772.52 1535.08 7607.85 1535.08 7606.95 1534.19 7292.51 1219.74 6717.15 1219.74 6717.15 1213.66 7295.02 1213.66 7295.92 1214.55 7610.36 1528.99 7770.02 1528.99 7917.56 1381.46 8095.61 1381.46 8095.61 1387.54 7920.06 1387.54 7772.52 1535.08"/><polygon class="cls-3" points="8096.87 1587.58 7690.19 1587.58 7690.19 1581.49 8094.36 1581.49 8170.17 1505.68 8302.83 1505.68 8302.83 1511.77 8172.67 1511.77 8096.87 1587.58"/><polygon class="cls-3" points="6036.83 1477.87 6032.53 1473.57 6463.63 1042.47 8302.83 1042.47 8302.83 1048.56 6466.13 1048.56 6036.83 1477.87"/><polygon class="cls-1" points="3483.98 1459.9 3320.15 1459.9 2922.31 1062.08 2398.33 1062.08 2240.66 1219.74 1924.08 1219.74 1924.08 1213.66 2238.15 1213.66 2395.81 1055.99 2924.84 1055.99 3322.66 1453.82 3481.46 1453.82 3600.84 1334.43 3814.82 1334.43 3937.39 1211.87 3941.69 1216.18 3817.34 1340.52 3603.36 1340.52 3483.98 1459.9"/><polygon class="cls-1" points="492.82 1260.99 140.18 1260.99 140.18 1254.9 490.3 1254.9 652.82 1092.38 862.07 1092.38 862.07 1098.47 655.34 1098.47 492.82 1260.99"/><polygon class="cls-1" points="781.12 1526.06 140.18 1526.06 140.18 1519.98 778.6 1519.98 1150.51 1148.06 1154.81 1152.37 781.12 1526.06"/><polygon class="cls-1" points="647.68 2874.07 81.62 2874.07 81.62 2868.01 645.16 2868.01 824.5 2688.66 1077.17 2688.66 1077.17 2694.74 827.02 2694.74 647.68 2874.07"/><polygon class="cls-1" points="1996.14 2694.31 1679.97 2694.31 1679.08 2693.43 1544.4 2558.73 1005.09 2558.73 1005.09 2552.66 1546.92 2552.66 1547.81 2553.55 1682.5 2688.24 1996.14 2688.24 1996.14 2694.31"/><polygon class="cls-1" points="2847.15 3068.65 2625.55 2847.03 2283.19 2847.03 2282.3 2846.15 1993.99 2557.85 1998.29 2553.55 2285.71 2840.96 2628.07 2840.96 2628.96 2841.85 2851.45 3064.35 2847.15 3068.65"/><polygon class="cls-1" points="1078.43 3117.34 501.13 3117.34 501.13 3111.26 1075.91 3111.26 1274.11 2913.05 1870.01 2913.05 1870.01 2919.12 1276.64 2919.12 1078.43 3117.34"/><polygon class="cls-3" points="3033.5 2694.31 2788.98 2694.31 2788.98 2688.24 3030.98 2688.24 3387.07 2332.14 3907.43 2332.14 3908.32 2333.03 4044.72 2469.43 4237.92 2469.43 4388.53 2318.82 4769.82 2318.82 4895.27 2193.37 4899.57 2197.68 4772.33 2324.88 4391.04 2324.88 4240.44 2475.5 4042.19 2475.5 4041.3 2474.61 3904.91 2338.22 3389.58 2338.22 3033.5 2694.31"/><polygon class="cls-3" points="4312.85 2558.73 4041.3 2558.73 4041.3 2552.66 4310.34 2552.66 4412.24 2450.76 5053.2 2450.76 5053.2 2456.84 4414.75 2456.84 4312.85 2558.73"/><g class="cls-4"><polygon class="cls-5" points="5978.37 2579.23 5646.03 2579.23 5645.13 2578.34 5264.46 2197.68 5268.76 2193.37 5648.53 2573.16 5978.37 2573.16 5978.37 2579.23"/></g><g class="cls-4"><polygon class="cls-5" points="4844.42 2919.12 4479.69 2919.12 4479.69 2913.05 4841.91 2913.05 5059.34 2695.63 7051.75 2695.63 7052.65 2696.52 7178.48 2822.36 7598.83 2822.36 7897.08 2524.08 7901.39 2528.38 7601.34 2828.42 7175.97 2828.42 7175.07 2827.54 7049.25 2701.7 5061.85 2701.7 4844.42 2919.12"/></g><polygon class="cls-3" points="7575.21 2723.3 7570.9 2719 7902.55 2387.39 8379.42 2387.39 8379.42 2393.46 7905.06 2393.46 7575.21 2723.3"/><polygon class="cls-3" points="7618.14 2908.88 7167.5 2908.88 7166.6 2907.99 7047.47 2788.86 6717.15 2788.86 6717.15 2782.79 7049.98 2782.79 7050.88 2783.67 7170.01 2902.81 7615.64 2902.81 7995.24 2523.19 8379.42 2523.19 8379.42 2529.26 7997.75 2529.26 7618.14 2908.88"/><polygon class="cls-3" points="4718.28 3117.34 4086.35 3117.34 4086.35 3111.26 4715.77 3111.26 4828.38 2998.65 5051.95 2998.65 5223.96 2826.63 5745.36 2826.63 5746.26 2827.52 5955.26 3036.53 6293.69 3036.53 6293.69 3042.59 5952.75 3042.59 5951.85 3041.71 5742.86 2832.7 5226.47 2832.7 5054.46 3004.72 4830.89 3004.72 4718.28 3117.34"/><polygon class="cls-3" points="3060.53 3163.3 2840.85 3163.3 2839.96 3162.42 2651.68 2974.14 2655.99 2969.84 2843.37 3157.23 3058.01 3157.23 3346.77 2868.46 4184.2 2868.46 4304.43 2748.24 4644.95 2748.24 4644.95 2754.31 4306.93 2754.31 4186.72 2874.52 3349.3 2874.52 3060.53 3163.3"/><polygon class="cls-3" points="4592.14 3347.07 4170.69 3347.07 4169.79 3346.18 4085.09 3261.48 3753.01 3261.48 3753.01 3255.41 4087.62 3255.41 4088.51 3256.3 4173.2 3340.99 4589.63 3340.99 4761.71 3168.91 4766.01 3173.22 4592.14 3347.07"/><polygon class="cls-1" points="502.53 2454.14 0 2454.14 0 2447.39 499.73 2447.39 850.57 2096.55 1586.12 2096.55 1586.12 2103.3 853.37 2103.3 502.53 2454.14"/><polygon class="cls-3" points="2132.69 2278.72 1154.81 2278.72 1154.81 2271.96 2129.89 2271.96 2418.86 1983 2790.38 1983 2965.82 2158.45 4039.91 2158.45 4225.57 1972.79 4230.35 1977.57 4042.7 2165.21 2963.02 2165.21 2787.58 1989.76 2421.66 1989.76 2132.69 2278.72"/><polygon class="cls-3" points="6528.49 2435.49 6345.92 2435.49 6189.14 2278.72 5716.27 2278.72 5716.27 2271.96 6191.94 2271.96 6348.72 2428.74 6525.7 2428.74 7294.43 1660.01 7549.68 1660.01 7882.13 1992.45 8655.5 1992.45 8655.5 1999.21 7879.33 1999.21 7546.89 1666.76 7297.23 1666.76 6528.49 2435.49"/><polygon class="cls-3" points="8533.87 2198.87 7686.66 2198.87 7546.89 2059.09 7306.74 2059.09 7170.07 2195.76 7165.29 2190.98 7303.94 2052.34 7549.68 2052.34 7689.46 2192.12 8533.87 2192.12 8533.87 2198.87"/><polygon class="cls-3" points="4140.79 1959.76 3678.25 1959.76 3678.25 1956.37 4139.39 1956.37 4207.16 1888.6 4410.47 1888.6 4481.51 1817.55 4483.91 1819.95 4411.87 1891.99 4208.56 1891.99 4140.79 1959.76"/><g class="cls-4"><polygon class="cls-5" points="5490.47 2027.52 5361.76 2027.52 5203.63 1869.39 4582.55 1869.39 4442.49 2009.46 4440.09 2007.06 4581.14 1866 5205.03 1866 5363.16 2024.13 5490.47 2024.13 5490.47 2027.52"/></g><g class="cls-4"><polygon class="cls-5" points="5333.02 1879.56 5273.91 1820.45 5124.01 1820.45 5124.01 1817.06 5275.31 1817.06 5335.42 1877.16 5333.02 1879.56"/></g><g class="cls-4"><polygon class="cls-5" points="4407.35 1819.95 4404.95 1817.55 4581.19 1641.32 4787.67 1641.32 4787.67 1644.71 4582.59 1644.71 4407.35 1819.95"/></g><g class="cls-4"><polygon class="cls-5" points="6831.51 2194.77 6507.91 2194.77 6507.41 2194.27 6318.07 2004.94 6112.95 2004.94 6112.95 2001.55 6319.47 2001.55 6319.97 2002.04 6509.31 2191.38 6830.11 2191.38 7060.7 1960.79 7063.1 1963.19 6831.51 2194.77"/></g><g class="cls-4"><polygon class="cls-5" points="6877.19 2027.03 6874.79 2024.63 7021.82 1877.61 7116.25 1877.61 7217.44 1776.42 7377.99 1776.42 7377.99 1779.82 7218.83 1779.82 7117.65 1881 7023.21 1881 6877.19 2027.03"/></g><g class="cls-4"><polygon class="cls-5" points="5922.89 2004.94 5776.61 2004.94 5776.61 2001.55 5921.49 2001.55 5989.89 1933.15 6349.59 1933.15 6350.09 1933.64 6416.92 2000.47 6414.52 2002.87 6348.19 1936.54 5991.29 1936.54 5922.89 2004.94"/></g><g class="cls-4"><polygon class="cls-5" points="5837.55 1850.25 5691.27 1850.25 5691.27 1846.86 5836.15 1846.86 6049.38 1633.63 6415.72 1633.63 6415.72 1637.02 6050.78 1637.02 5837.55 1850.25"/></g><polygon class="cls-3" points="7930.89 1874.41 7839.13 1874.41 7838.63 1873.92 7663.43 1698.71 7342.85 1698.71 7342.85 1695.32 7664.83 1695.32 7665.33 1695.82 7840.53 1871.03 7929.49 1871.03 8011.69 1788.82 8110.91 1788.82 8110.91 1792.21 8013.09 1792.21 7930.89 1874.41"/><polygon class="cls-3" points="8111.61 1903.67 7885.01 1903.67 7885.01 1900.28 8110.21 1900.28 8152.45 1858.04 8226.37 1858.04 8226.37 1861.43 8153.85 1861.43 8111.61 1903.67"/><polygon class="cls-3" points="6963.78 1842.54 6961.39 1840.14 7201.59 1599.94 8226.37 1599.94 8226.37 1603.34 7202.99 1603.34 6963.78 1842.54"/><g class="cls-4"><polygon class="cls-5" points="5541.37 1832.53 5450.08 1832.53 5228.42 1610.87 4936.46 1610.87 4848.61 1698.71 4672.21 1698.71 4672.21 1695.32 4847.21 1695.32 4935.05 1607.47 5229.82 1607.47 5451.48 1829.14 5539.97 1829.14 5606.48 1762.62 5725.71 1762.62 5794 1694.33 5796.4 1696.73 5727.11 1766.01 5607.89 1766.01 5541.37 1832.53"/></g><polygon class="cls-1" points="3874.73 1721.7 3678.25 1721.7 3678.25 1718.31 3873.33 1718.31 3963.88 1627.75 4080.48 1627.75 4080.48 1631.14 3965.29 1631.14 3874.73 1721.7"/><polygon class="cls-3" points="4035.37 1869.39 3678.25 1869.39 3678.25 1866 4033.97 1866 4241.19 1658.78 4243.59 1661.17 4035.37 1869.39"/><polygon class="cls-6" points="3961.02 2620.49 3645.62 2620.49 3645.62 2617.11 3959.62 2617.11 4059.54 2517.18 4200.32 2517.18 4200.32 2520.56 4060.95 2520.56 3961.02 2620.49"/><g class="cls-7"><polygon class="cls-3" points="4712.36 2520.32 4536.2 2520.32 4535.7 2519.83 4460.66 2444.78 4160.16 2444.78 4160.16 2441.4 4462.07 2441.4 4462.56 2441.89 4537.6 2516.94 4712.36 2516.94 4712.36 2520.32"/></g><g class="cls-4"><polygon class="cls-5" points="5186.54 2728.9 5063.06 2605.42 4872.3 2605.42 4871.81 2604.93 4711.17 2444.29 4713.56 2441.89 4873.71 2602.04 5064.47 2602.04 5064.96 2602.53 5188.94 2726.5 5186.54 2728.9"/></g><polygon class="cls-3" points="4201.03 2756.03 3879.37 2756.03 3879.37 2752.64 4199.62 2752.64 4310.06 2642.2 4642.08 2642.2 4642.08 2645.59 4311.47 2645.59 4201.03 2756.03"/><g class="cls-4"><polygon class="cls-5" points="5290.37 2520.32 5154.12 2520.32 5154.12 2516.94 5288.96 2516.94 5487.37 2318.53 5777.31 2318.53 5777.81 2319.02 5853.8 2395.02 5961.45 2395.02 6045.37 2311.1 6257.82 2311.1 6327.72 2241.21 6330.12 2243.61 6259.22 2314.49 6046.77 2314.49 5962.86 2398.4 5852.4 2398.4 5851.9 2397.91 5775.91 2321.91 5488.77 2321.91 5290.37 2520.32"/></g><g class="cls-4"><polygon class="cls-5" points="6003.2 2444.78 5851.9 2444.78 5851.9 2441.4 6001.8 2441.4 6058.58 2384.62 6415.72 2384.62 6415.72 2388.01 6059.98 2388.01 6003.2 2444.78"/></g><g class="cls-4"><polygon class="cls-5" points="6931.21 2456.2 6746.03 2456.2 6745.53 2455.71 6533.43 2243.61 6535.82 2241.21 6747.43 2452.82 6931.21 2452.82 6931.21 2456.2"/></g><g class="cls-4"><polygon class="cls-3" points="6299.39 2645.59 6096.16 2645.59 6096.16 2642.2 6297.99 2642.2 6419.14 2521.06 7529.28 2521.06 7529.78 2521.55 7599.89 2591.67 7834.11 2591.67 8000.29 2425.47 8002.69 2427.87 7835.51 2595.05 7598.49 2595.05 7597.99 2594.56 7527.89 2524.44 6420.53 2524.44 6299.39 2645.59"/></g><polygon class="cls-3" points="7820.95 2536.48 7818.55 2534.08 8003.34 2349.31 8269.04 2349.31 8269.04 2352.7 8004.73 2352.7 7820.95 2536.48"/><polygon class="cls-3" points="7844.87 2639.88 7593.77 2639.88 7593.27 2639.39 7526.9 2573.01 7342.85 2573.01 7342.85 2569.62 7528.3 2569.62 7528.8 2570.12 7595.17 2636.5 7843.47 2636.5 8054.99 2424.98 8269.04 2424.98 8269.04 2428.36 8056.38 2428.36 7844.87 2639.88"/><g class="cls-4"><polygon class="cls-5" points="6229.1 2756.03 5877 2756.03 5877 2752.64 6227.7 2752.64 6290.45 2689.9 6415.02 2689.9 6510.86 2594.05 6801.38 2594.05 6801.88 2594.55 6918.33 2711 7106.9 2711 7106.9 2714.39 6916.93 2714.39 6916.43 2713.89 6799.98 2597.43 6512.26 2597.43 6416.42 2693.28 6291.85 2693.28 6229.1 2756.03"/></g><g class="cls-4"><polygon class="cls-5" points="5305.43 2781.64 5183.03 2781.64 5182.53 2781.15 5077.62 2676.24 5080.02 2673.84 5184.43 2778.26 5304.02 2778.26 5464.92 2617.36 5931.52 2617.36 5998.51 2550.37 6188.24 2550.37 6188.24 2553.76 5999.91 2553.76 5932.93 2620.74 5466.32 2620.74 5305.43 2781.64"/></g><g class="cls-4"><polygon class="cls-5" points="6158.82 2884.03 5923.99 2884.03 5923.5 2883.54 5876.3 2836.34 5691.27 2836.34 5691.27 2832.96 5877.71 2832.96 5878.2 2833.45 5925.4 2880.65 6157.43 2880.65 6253.3 2784.76 6255.7 2787.16 6158.82 2884.03"/></g><polygon class="cls-3" points="3880.14 2386.51 3600.14 2386.51 3600.14 2382.74 3878.59 2382.74 4074.07 2187.26 4483.91 2187.26 4483.91 2191.02 4075.63 2191.02 3880.14 2386.51"/><g class="cls-4"><polygon class="cls-3" points="4788.45 2288.76 4243.59 2288.76 4243.59 2285 4786.89 2285 4947.9 2123.99 5154.9 2123.99 5252.66 2221.75 5851.12 2221.75 5954.57 2118.3 5957.23 2120.96 5852.68 2225.52 5251.1 2225.52 5153.34 2127.76 4949.46 2127.76 4788.45 2288.76"/></g><polygon class="cls-3" points="7237.73 2376.12 7136 2376.12 7048.65 2288.76 6785.17 2288.76 6785.17 2285 7050.21 2285 7137.56 2372.35 7236.17 2372.35 7664.5 1944.02 7806.72 1944.02 7991.96 2129.26 8422.87 2129.26 8422.87 2133.02 7990.4 2133.02 7805.16 1947.79 7666.06 1947.79 7237.73 2376.12"/><polygon class="cls-3" points="8355.1 2244.28 7883.05 2244.28 7805.16 2166.39 7671.36 2166.39 7595.21 2242.54 7592.55 2239.88 7669.8 2162.63 7806.72 2162.63 7884.6 2240.51 8355.1 2240.51 8355.1 2244.28"/></g></svg>