<svg id="Layer_1" data-name="Layer 1" xmlns="http://www.w3.org/2000/svg" viewBox="0 0 18 18"><defs><style>.cls-1{fill:#ed5600;}</style></defs><path class="cls-1" d="M12,21a8.67,8.67,0,0,1-6.37-2.63A8.67,8.67,0,0,1,3,12,8.7,8.7,0,0,1,5.63,5.62,8.66,8.66,0,0,1,12,3l.69,0,.66.08A5.39,5.39,0,0,0,11.1,7.5a5.2,5.2,0,0,0,1.58,3.82A5.2,5.2,0,0,0,16.5,12.9,5.29,5.29,0,0,0,19,12.29a5.39,5.39,0,0,0,1.87-1.64c0,.22.06.44.08.66s0,.46,0,.69a8.66,8.66,0,0,1-2.62,6.37A8.7,8.7,0,0,1,12,21Zm0-2A6.76,6.76,0,0,0,16,17.79a7,7,0,0,0,2.55-3.17,8.85,8.85,0,0,1-1,.2,6.74,6.74,0,0,1-1,.08,7.14,7.14,0,0,1-5.24-2.16A7.14,7.14,0,0,1,9.1,7.5a6.74,6.74,0,0,1,.08-1,8.85,8.85,0,0,1,.2-1A7,7,0,0,0,6.21,8.05,6.76,6.76,0,0,0,5,12,6.74,6.74,0,0,0,7.05,17,6.74,6.74,0,0,0,12,19Z" transform="translate(-3 -3)"/></svg>