<svg id="Layer_1" data-name="Layer 1" xmlns="http://www.w3.org/2000/svg" viewBox="0 0 22 22"><defs><style>.cls-1{fill:#1f64fd;}</style></defs><path class="cls-1" d="M12,15a3,3,0,0,0,3-3,3,3,0,0,0-3-3,3,3,0,0,0-3,3,3,3,0,0,0,3,3Zm0,2a5,5,0,0,1-5-5,5,5,0,0,1,5-5,5,5,0,0,1,5,5,5,5,0,0,1-5,5ZM5,13H1V11H5Zm18,0H19V11h4ZM11,5V1h2V5Zm0,18V19h2v4ZM6.4,7.75,3.88,5.32,5.3,3.85l2.4,2.5Zm12.3,12.4-2.42-2.53,1.32-1.37,2.53,2.42ZM16.25,6.4l2.43-2.53L20.15,5.3l-2.5,2.4ZM3.85,18.7l2.53-2.43L7.75,17.6,5.33,20.12Z" transform="translate(-1 -1)"/></svg>